<?xml version="1.0" encoding="utf-8"?>
<!-- Generator: Adobe Illustrator 27.5.0, SVG Export Plug-In . SVG Version: 6.00 Build 0)  -->
<svg version="1.1" id="Layer_1" xmlns="http://www.w3.org/2000/svg" xmlns:xlink="http://www.w3.org/1999/xlink" x="0px" y="0px"
	 viewBox="0 0 4000 4000" style="enable-background:new 0 0 4000 4000;" xml:space="preserve">
<g>
	<g>
		<g>
			<rect style="fill:#9EFFB7;" width="4000" height="4000"/>
		</g>
	</g>
	<g>
		<g>
			<g>
				<g>
					<path style="fill:#FFFFFF;" d="M1397.245,3568.463c3.395,12.056,7.069,23.995,11.133,35.768
						c7.681,22.253,26.342,38.909,49.271,44.241c141.175,32.831,289.238,29.702,443.276-4.617
						c22.963-5.116,39.736-25.05,40.933-48.545c0.625-12.267,0.867-25.051,0.831-38.21l-74.583-18.313l-288.65,13.12
						L1397.245,3568.463z"/>
				</g>
			</g>
			<g>
				<g>
					<path style="fill:#371A45;" d="M1661.644,3681.102c-71.167,0-140.051-7.69-206.218-23.076
						c-26.455-6.152-47.51-25.068-56.321-50.596c-3.938-11.416-7.637-23.291-11.301-36.313c-0.791-2.803-0.29-5.815,1.362-8.218
						c1.653-2.403,4.287-3.945,7.192-4.209l182.21-16.553l289.094-13.149c0.92-0.029,1.873,0.054,2.783,0.274l74.583,18.31
						c4.375,1.074,7.456,4.995,7.471,9.497c0.039,14.131-0.239,26.802-0.847,38.74c-1.419,27.866-21.401,51.563-48.594,57.622
						C1820.262,3671.874,1739.584,3681.102,1661.644,3681.102z M1409.979,3577.152c2.493,8.33,5.027,16.221,7.671,23.882
						c6.594,19.106,22.378,33.267,42.219,37.881c135.745,31.568,283.418,30.01,438.921-4.634
						c18.618-4.146,32.3-20.376,33.271-39.468c0.479-9.395,0.745-19.277,0.808-30.024l-65.73-16.138l-287.241,13.057
						L1409.979,3577.152z"/>
				</g>
			</g>
			<g>
				<g>
					<path style="fill:#80A4DD;" d="M1929.334,3425.076c-139.952,21.867-327.88-39.93-428.602-13.121
						c-8.178-2.318-13.776-6.385-16.838-12.202c-0.437-0.787-0.787-1.618-1.093-2.493c-0.393-0.875-0.656-1.793-0.875-2.755
						c-1.531-5.991-1.05-13.295,1.312-21.911c0.219-29.259,15.22-47.059,39.361-56.855l83.096-30.615l113.711-4.374l135.141,25.322
						l74.786,14.039C1942.674,3352.126,1940.705,3387.552,1929.334,3425.076z"/>
				</g>
			</g>
			<g>
				<g>
					<path style="fill:#638CC6;" d="M1929.334,3425.076c-139.952,21.867-327.88-39.93-428.602-13.121
						c-8.178-2.318-13.776-6.385-16.838-12.202l0.7-0.7l-3.455-3.455c0.263-0.394,0.525-0.744,0.787-1.094
						c5.598-6.998,16.095-7.96,25.235-8.266c25.454-0.743,50.907-1.531,76.361-2.274c21.474-0.656,43.079-1.268,64.465,1.181
						c19.288,2.231,38.312,6.998,57.73,8.004c19.462,1.006,39.974-2.187,55.369-14.083c15.351-11.94,23.66-34.244,15.22-51.739
						c26.066-7.085,52.175-14.17,78.242-21.255l74.786,14.039C1942.674,3352.126,1940.705,3387.552,1929.334,3425.076z"/>
				</g>
			</g>
			<g>
				<g>
					<path style="fill:#638CC6;" d="M2100.884,3347.794c-12.095,27.192-13.079,57.556-5.357,90.402
						c147.871-45.049,332.385,4.374,467.963-8.747c10.061-34.539,7.906-69.264-5.894-104.166l-125.311-22.665h-223.048
						L2100.884,3347.794z"/>
				</g>
			</g>
			<g>
				<g>
					<path style="fill:#371A45;" d="M1860.856,3439.696c-52.324,0-107.527-6.707-161.472-13.262
						c-75.869-9.219-147.534-17.93-196.128-5c-1.709,0.454-3.501,0.439-5.2-0.044c-13.162-3.735-33.694-15.215-24.607-50.159
						c0.669-30.466,16.365-52.781,45.464-64.582c0.098-0.039,0.195-0.078,0.295-0.115l83.098-30.615
						c0.967-0.356,1.985-0.557,3.015-0.598l113.711-4.373c0.737-0.019,1.465,0.029,2.183,0.161l209.927,39.361
						c3.25,0.61,5.974,2.815,7.246,5.867c13.308,31.928,13.418,68.43,0.335,111.587c-1.094,3.604-4.153,6.262-7.874,6.843
						C1908.397,3438.275,1884.931,3439.696,1860.856,3439.696z M1564.472,3395.294c41.262,0,88.418,5.73,137.278,11.668
						c75.137,9.128,152.747,18.559,219.924,9.326c9.351-33.784,9.517-62.532,0.496-87.542l-203.486-38.152l-111.055,4.27
						l-81.484,30.022c-22.39,9.126-32.91,24.316-33.098,47.785c-0.005,0.854-0.125,1.707-0.352,2.529
						c-4.954,17.961,0.674,23.77,8.333,26.553C1519.796,3397.118,1541.198,3395.294,1564.472,3395.294z M1483.239,3372.594h0.049
						H1483.239z"/>
				</g>
			</g>
			<g>
				<g>
					<path style="fill:#371A45;" d="M2095.526,3448.007c-1.699,0-3.389-0.444-4.893-1.309c-2.349-1.352-4.036-3.615-4.656-6.257
						c-8.499-36.15-6.499-68.662,5.945-96.633c1.018-2.29,2.876-4.102,5.188-5.066l108.352-45.176
						c1.196-0.498,2.478-0.757,3.774-0.757h223.049c0.586,0,1.169,0.054,1.746,0.159l125.31,22.666
						c3.34,0.603,6.128,2.891,7.375,6.045c14.663,37.09,16.746,74.272,6.189,110.515c-1.121,3.853-4.478,6.633-8.472,7.019
						c-53.848,5.215-114.192,0.796-178.074-3.894c-98.174-7.192-199.688-14.634-287.976,12.261
						C2097.45,3447.865,2096.486,3448.007,2095.526,3448.007z M2108.351,3355.309c-8.396,20.828-10.171,44.019-5.383,70.527
						c89.18-24.424,188.582-17.139,284.827-10.081c60.32,4.421,117.449,8.606,167.996,4.529c6.892-28.298,5.081-57.285-5.403-86.335
						l-118.979-21.521H2211.2L2108.351,3355.309z"/>
				</g>
			</g>
			<g>
				<g>
					<path style="fill:#80A4DD;" d="M2547.877,3333.67c-4.68,3.062-9.709,5.817-15.001,8.31
						c-109.118,37.787-290.357-18.762-424.928,5.248c-11.372,2.055-22.568-4.636-25.629-15.745
						c-1.661-5.992-2.231-11.677-1.924-17.232c1.269-28.734,23.879-53.794,23.879-94.729l-13.121-148.699l-25.235-270.369
						l-5.379-57.643c-3.543-0.831-7.086-1.574-10.627-2.099c-13.646-2.187-27.16-2.187-40.586-0.394
						c-4.811,0.569-9.621,1.443-14.389,2.493c-8.135,60.923,9.403,116.772-1.356,157.139c-1.793,6.735-3.017,13.645-3.017,20.599
						v27.815c-5.817,90.575-19.812,184.255-40.061,280.297c-2.143,10.146-0.875,20.599,3.236,30.133
						c4.854,11.284,6.953,22.961,6.21,35.075c-3.061,12.946-14.739,20.818-30.614,26.241
						c-161.819,26.241-284.277-30.615-406.734-4.373c-6.954-13.908-10.496-26.635-11.502-39.143
						c-4.592-58.299,46.053-113.011,64.465-271.419c4.898-13.602-0.044-28.953-8.485-40.674
						c-10.54-14.607-23.923-29.084-29.39-52.307c-1.837-7.829-1.05-16.051,2.143-23.442c5.992-13.864,15.307-28.253,22.13-45.353
						c12.858-83.534,20.906-167.986,24.404-253.356c1.88-45.047,2.493-90.356,1.837-135.884l88.388-6.473l330.286-24.185
						l390.115-28.603c23.617,219.549,59.48,436.255,110.649,649.375c10.541,43.866,19.243,88.126,28.035,132.386
						c6.473,32.539,16.313,64.377,30.264,95.254C2575.912,3294.09,2568.17,3320.287,2547.877,3333.67z"/>
				</g>
			</g>
			<g>
				<g>
					<path style="fill:#638CC6;" d="M2565.94,3271.917c-13.951-30.877-23.792-62.716-30.264-95.254
						c-8.792-44.26-17.494-88.52-28.035-132.386c-51.17-213.12-87.032-429.827-110.649-649.375l-390.115,28.603
						c-1.662,10.278-2.143,20.862-2.536,31.183c-1.181,31.008-2.318,62.147-2.93,93.243
						c-112.442-14.389-219.987-54.057-324.819-100.24l-88.388,6.473c0.656,45.528,0.044,90.837-1.837,135.884l9.096-1.006
						c63.503,94.774,219.156,81.74,289.481,171.528c21.824,27.903,32.714,63.066,37.262,98.185
						c17.538,135.84-52.875,267.701-60.66,404.416c-0.35,6.735-0.656,13.733-3.717,19.724
						c-6.954,13.689-25.848,16.969-40.542,12.464c-14.695-4.461-26.897-14.563-40.367-21.955
						c-52.657-28.822-117.428-13.821-175.639,0.787c-23.048,5.817-46.884,11.458-70.369,7.741c-6.866-1.094-13.47-2.93-19.812-5.335
						c1.006,12.508,4.548,25.235,11.502,39.143c122.458-26.241,244.915,30.614,406.734,4.373
						c15.876-5.423,27.553-13.295,30.614-26.241c0.743-12.115-1.356-23.792-6.21-35.075c-4.111-9.534-5.38-19.987-3.236-30.133
						c20.249-96.042,34.244-189.722,40.061-280.297v-27.815c0-6.954,1.225-13.864,3.017-20.599
						c10.759-40.367-6.779-96.217,1.356-157.139c4.768-1.05,9.578-1.924,14.389-2.493c6.713-0.896,13.448-1.345,20.21-1.296
						c3.381,0.025,6.769,0.174,10.165,0.453c3.396,0.279,6.799,0.689,10.211,1.236l16.007,59.742l0.175-0.044
						c37.131-27.334,75.881-53.838,119.746-67.964c43.91-14.083,94.205-14.389,133.917,9.009
						c57.905,34.113,78.504,106.407,94.161,171.791c18.15,75.793,36.3,151.629,54.45,227.465
						c8.659,36.256,17.363,72.775,19.2,109.993c0.262,5.335,0.349,10.934-1.969,15.744c-2.711,5.729-8.309,9.447-13.82,12.508
						c-87.426,48.939-198.775-0.175-296.085,23.661c-31.359,7.698-67.177,22.042-95.299,11.633
						c-0.307,5.554,0.263,11.24,1.924,17.232c3.061,11.109,14.258,17.8,25.629,15.745c134.571-24.011,315.809,32.539,424.928-5.248
						c5.292-2.493,10.321-5.248,15.001-8.31C2568.17,3320.287,2575.912,3294.09,2565.94,3271.917z"/>
				</g>
			</g>
			<g>
				<g>
					<path style="fill:#371A45;" d="M2433.063,3365.236c-37.668,0-78.22-3.484-119.934-7.068
						c-69.89-6.006-142.163-12.217-203.455-1.274c-16.563,2.944-32.39-6.829-36.824-22.761c-6.35-22.793,0.991-41.379,8.76-61.057
						c6.279-15.898,12.769-32.334,12.854-53.13l-13.081-148.26l-29.941-320.784c-15.361-2.83-31.05-2.788-47.598,0.137
						c-2.693,26.287-0.788,51.365,1.057,75.681c2.092,27.546,4.067,53.562-1.851,75.771c-1.802,6.765-2.678,12.678-2.678,18.076
						v27.798c0,0.21-0.007,0.42-0.022,0.63c-5.664,87.896-18.833,180.031-40.256,281.677c-1.672,7.93-0.757,16.319,2.649,24.26
						c5.474,12.759,7.827,26.062,6.997,39.541c-0.034,0.554-0.115,1.106-0.244,1.648c-3.569,15.137-15.674,26.021-37.002,33.276
						c-0.517,0.176-1.05,0.308-1.589,0.396c-84.419,13.696-159.7,4.966-226.123-2.739c-62.795-7.28-122.112-14.155-180.127-1.726
						c-4.382,0.942-8.828-1.201-10.828-5.203c-23.394-46.787-11.152-81.072,7.373-132.969
						c14.609-40.928,34.619-96.978,44.619-183.096c0.088-0.745,0.259-1.474,0.51-2.18c3.252-9.065,0.557-20.894-7.207-31.638
						c-1.721-2.38-3.518-4.758-5.344-7.173c-9.661-12.779-20.608-27.261-25.63-48.623c-2.295-9.761-1.34-20.266,2.683-29.575
						c2.776-6.418,6.096-12.712,9.612-19.375c4.143-7.854,8.42-15.962,11.997-24.712c19.067-124.373,27.798-254.395,25.955-386.487
						c-0.073-5.19,3.914-9.539,9.089-9.919l808.796-59.278c5.232-0.388,9.905,3.474,10.469,8.733
						c24.336,226.206,61.489,444.278,110.435,648.152c10.337,43.064,19.07,87.136,27.517,129.756l0.593,2.998
						c6.472,32.664,16.421,63.997,29.568,93.13c12.046,26.701,2.964,57.822-21.597,74.004c-4.832,3.184-10.137,6.121-16.216,8.98
						c-0.315,0.149-0.637,0.281-0.967,0.395C2505.839,3361.718,2470.905,3365.236,2433.063,3365.236z M2187.621,3331.263
						c41.543,0,84.792,3.716,127.188,7.358c81.25,6.985,158.003,13.574,214.363-5.742c5.024-2.385,9.38-4.805,13.303-7.388
						c16.465-10.847,22.566-31.689,14.507-49.553c-13.76-30.493-24.167-63.259-30.93-97.385l-0.593-2.998
						c-8.408-42.432-17.104-86.306-27.351-128.989c-48.457-201.856-85.403-417.539-109.839-641.208l-790.146,57.913
						c1.338,130.398-7.559,258.738-26.465,381.623c-0.115,0.737-0.31,1.458-0.588,2.151c-4.038,10.1-8.735,18.999-13.276,27.605
						c-3.332,6.318-6.482,12.285-8.953,18.005c-2.366,5.471-2.932,11.616-1.594,17.305c4.072,17.327,13.279,29.504,22.183,41.282
						c1.912,2.529,3.794,5.019,5.593,7.512c11.27,15.593,15.024,33.667,10.164,48.611c-10.298,87.749-30.64,144.736-45.51,186.387
						c-16.975,47.551-26.77,74.988-11.435,110.852c58.591-10.962,117.056-4.192,178.801,2.966
						c68.105,7.896,138.516,16.057,219.897,2.993c17.629-6.152,21.875-13.169,23.271-18.186c0.484-10.088-1.362-20.081-5.493-29.712
						c-5.007-11.675-6.326-24.136-3.816-36.04c21.201-100.594,34.238-191.724,39.854-278.577v-27.48
						c0-7.126,1.094-14.692,3.342-23.127c5.061-18.992,3.294-42.275,1.245-69.233c-1.987-26.172-4.238-55.837-0.125-86.692
						c0.544-4.084,3.584-7.395,7.61-8.281c24.526-5.41,47.427-5.403,70.01,0.042c4.077,0.984,7.08,4.448,7.468,8.625l30.615,328.013
						l13.125,148.748c0.024,0.286,0.039,0.574,0.039,0.862c0,24.731-7.559,43.87-14.226,60.757
						c-7.09,17.957-12.69,32.141-8.11,48.591c1.709,6.135,7.947,9.875,14.48,8.711
						C2132.032,3332.975,2159.435,3331.263,2187.621,3331.263z M1561.962,2843.402h0.049H1561.962z"/>
				</g>
			</g>
			<g>
				<g>
					<g>
						<g>
							<path style="fill:#C7DDE2;" d="M1209.423,2628.399c1.429,31.393-4.465,64.476-15.463,98.736
								c-1.818,5.662-0.054,12.177,4.984,15.335c16.223,10.171,48.161-19.819,68.71-61.476l18.127-25.922l1.213-67.654
								l-23.547-32.879l-42.64,35.502L1209.423,2628.399z"/>
						</g>
					</g>
					<g>
						<g>
							<path style="fill:#371A45;" d="M1206.2,2752.306c-5.046,0-8.85-1.575-11.423-3.188c-7.9-4.951-11.306-14.978-8.286-24.382
								c11.47-35.732,16.406-67.129,15.093-95.979c-0.039-0.874,0.068-1.75,0.318-2.588l11.384-38.357
								c0.439-1.487,1.311-2.807,2.5-3.799l42.639-35.503c1.677-1.396,3.85-2.024,6.021-1.753c2.161,0.278,4.111,1.443,5.381,3.215
								l23.547,32.878c0.981,1.37,1.497,3.022,1.465,4.709l-1.211,67.654c-0.029,1.56-0.523,3.076-1.416,4.355l-17.788,25.437
								c-16.958,34.141-41.25,60.701-60.566,66.177C1211.046,2751.979,1208.495,2752.306,1206.2,2752.306z M1217.318,2629.376
								c1.191,30.374-4.009,63.157-15.886,100.156c-0.798,2.485-0.076,5.188,1.68,6.289c0.574,0.356,2.302,1.443,6.465,0.264
								c12.798-3.628,34.441-24.91,51.04-58.562c0.176-0.356,0.378-0.698,0.606-1.025l16.755-23.96l1.123-62.663l-17.119-23.904
								l-34.329,28.581L1217.318,2629.376z"/>
						</g>
					</g>
					<g>
						<g>
							<path style="fill:#C7DDE2;" d="M1279.815,2663.603c2.248,21.748-2.376,43.633-0.045,59.912
								c0.939,6.558,7.321,11.061,13.797,9.663c26.141-5.642,35.479-46.183,37.691-101.53l-14.201-17.056L1279.815,2663.603z"/>
						</g>
					</g>
					<g>
						<g>
							<path style="fill:#371A45;" d="M1291.217,2741.273c-3.911,0-7.793-1.196-11.064-3.474c-4.421-3.074-7.392-7.876-8.152-13.172
								c-1.255-8.777-0.696-18.572-0.103-28.94c0.586-10.247,1.191-20.842,0.112-31.277c-0.205-1.982,0.352-3.969,1.558-5.556
								l37.241-49.009c1.448-1.902,3.682-3.042,6.074-3.096c2.295-0.1,4.675,0.986,6.204,2.825l14.199,17.055
								c1.243,1.492,1.887,3.391,1.809,5.332c-1.863,46.692-8.535,101.262-43.875,108.886
								C1293.898,2741.134,1292.555,2741.273,1291.217,2741.273z M1287.902,2665.931c0.808,10.64,0.203,21.219-0.334,30.652
								c-0.547,9.563-1.065,18.596-0.029,25.821c0.195,1.369,1.072,2.163,1.577,2.514c0.488,0.34,1.504,0.867,2.793,0.588
								c18.513-3.992,28.787-33.823,31.379-91.165l-5.95-7.148L1287.902,2665.931z"/>
						</g>
					</g>
					<g>
						<g>
							<path style="fill:#FFFFFF;" d="M1362.27,2378.401c-60.522,28.539-98.833,73.054-137.645,100.384
								c-12.331,8.683-22.488,20.1-29.339,33.535c-26.99,52.93-57.141,102.775-91.218,148.788
								c-7.464,10.078-10.37,23.075-6.705,35.069c3.672,12.018,11.844,17.223,26.175,13.102c6.78-1.95,12.896-5.751,18.073-10.544
								c51.897-48.048,99.265-93.41,128.222-127.854l28.758,30.205l31.41,10.923c6.027,46.757,21.906,87.368,56.817,89.716
								c7.802,0.525,14.592-5.852,14.417-13.67c-0.131-5.843-1.527-11.435-4.762-16.663c-1.479-2.39-2.524-5.036-3.374-7.715
								c-7.496-23.624-11.637-45.343-7.837-62.554c50.123-26.173,90.587-57.314,107.671-100.476l-6.03-20.249L1362.27,2378.401z"/>
						</g>
					</g>
					<g>
						<g>
							<path style="fill:#C7DDE2;" d="M1342.948,2649.965c-1.322-6.887,3.501-13.865,9.813-16.921
								c7.313-3.541,16.595-2.574,23.021,2.399c11.654,9.018,11.677,26.965,21.084,38.306c-6.828-20.671-12.547-41.708-17.124-62.99
								c-0.44-2.045-0.822-4.356,0.355-6.085c0.88-1.292,2.425-1.928,3.874-2.516c34.159-13.847,63.683-38.864,82.949-70.286
								c-6.985,9.256-18.963,14.49-30.501,13.328s-22.232-8.678-27.232-19.141c-13.234,33.33-40.43,60.857-73.596,74.496
								c-1.88,0.773-3.881,1.581-5.078,3.225c-1.232,1.692-1.359,3.926-1.367,6.019c-0.056,14.492,3.419,28.986,10.041,41.877"/>
						</g>
					</g>
					<g>
						<g>
							<path style="fill:#C7DDE2;" d="M1101.428,2679.661c-1.468,7.977,8.248,14.316,16.222,12.829
								c7.973-1.488,14.026-7.808,19.499-13.795c30.619-33.494,61.238-66.987,91.857-100.481
								c12.322-13.479,24.702-27.031,34.732-42.293c9.128-13.889,17.594-30.27,33.271-35.788
								c-4.958,13.883-10.251,27.646-15.872,41.274c-7.132,17.289-14.869,34.494-25.751,49.705
								c-21.005,29.361-52.301,49.46-77.767,75.049c-13.391,13.455-25.4,28.64-41.285,39.034
								c-6.042,3.954-12.855,7.227-20.076,7.318c-7.22,0.092-14.853-3.681-17.52-10.391c-2.873-7.227,0.511-15.284,3.841-22.312"/>
						</g>
					</g>
					<g>
						<g>
							<path style="fill:#371A45;" d="M1114.781,2718.483c-12.09,0-20.928-6.941-24.924-20.01
								c-4.246-13.901-1.292-29.614,7.905-42.034c32.432-43.789,62.891-93.479,90.535-147.683
								c7.278-14.275,18.279-26.855,31.809-36.387c12.691-8.936,25.51-19.91,39.08-31.528
								c27.432-23.484,58.523-50.103,99.736-69.536c2.739-1.294,5.974-0.893,8.318,1.025l124.634,101.997
								c1.213,0.994,2.102,2.329,2.549,3.833l6.028,20.249c0.503,1.685,0.425,3.491-0.224,5.127
								c-15.496,39.153-49.834,71.865-107.937,102.756c-1.983,13.43,0.688,31.062,8.288,55.012c0.806,2.534,1.621,4.429,2.568,5.957
								c3.77,6.094,5.764,13.032,5.933,20.62c0.132,5.886-2.266,11.628-6.58,15.755c-4.351,4.163-10.208,6.321-16.208,5.92
								c-23.25-1.565-52.866-18.892-63.411-91.716l-26.868-9.341c-1.179-0.41-2.244-1.096-3.105-2.002l-22.769-23.914
								c-31.245,35.808-79.519,81.472-123.196,121.909c-6.467,5.989-13.613,10.137-21.235,12.327
								C1121.832,2717.933,1118.177,2718.483,1114.781,2718.483z M1361.173,2387.646c-37.156,18.352-66.116,43.144-91.78,65.117
								c-13.862,11.865-26.953,23.074-40.249,32.439c-11.453,8.064-20.745,18.674-26.868,30.684
								c-28.035,54.976-58.955,105.408-91.902,149.895c-6.248,8.438-8.308,18.943-5.508,28.105
								c2.239,7.332,5.652,10.964,16.504,7.852c5.244-1.507,10.259-4.453,14.907-8.758c46.079-42.659,97.263-91.125,127.549-127.146
								c1.436-1.709,3.533-2.725,5.764-2.793c2.21-0.086,4.387,0.818,5.925,2.431l27.446,28.828l29.617,10.298
								c2.808,0.977,4.824,3.46,5.205,6.409c4.719,36.611,17.148,80.71,49.56,82.891c1.577,0.125,3.132-0.479,4.307-1.602
								c0.669-0.64,1.785-2.019,1.738-4.065c-0.107-4.822-1.282-8.979-3.589-12.71c-1.646-2.659-2.976-5.669-4.182-9.47
								c-9.143-28.813-11.692-49.983-8.017-66.618c0.498-2.263,1.975-4.19,4.028-5.264c55.332-28.894,88.152-58.804,102.993-93.931
								l-4.553-15.293L1361.173,2387.646z"/>
						</g>
					</g>
					<g>
						<g>
							<path style="fill:#FFFFFF;" d="M1414.781,2515.178c-17.817,45.307-45.483,72.664-82.444,83.082
								c-8.156,55.378-26.715,87.134-59.114,87.47c-12.354,0.128-21.604-11.114-19.28-23.248c4.79-25,7.733-51.695,9.318-79.634
								c0.395-6.959,2.059-13.792,5.027-20.099l34.614-73.55L1414.781,2515.178z"/>
						</g>
					</g>
					<g>
						<g>
							<path style="fill:#C7DDE2;" d="M1265.497,2593.811c6.717-5.246,15.538-7.989,23.952-6.628
								c8.414,1.36,16.186,7.084,19.244,15.039c2.39,6.219,1.866,13.135,1.132,19.758c-1.341,12.1-3.307,24.291-8.164,35.455
								c-4.857,11.164-12.901,21.324-23.851,26.646c6.321,1.545,12.637-2.364,17.548-6.632
								c18.904-16.432,30.065-41.42,29.685-66.465c-0.058-3.801-0.267-7.948,1.992-11.006c1.561-2.113,4.04-3.309,6.41-4.444
								c19.005-9.101,37.855-19.782,51.464-35.869c-18.325,17.34-45.472,24.823-70.094,19.322c-10.38-2.319-20.535-7-27.598-14.954
								c-7.062-7.954-10.542-19.524-7.155-29.607c-11.103,17.614-16.088,39.004-13.915,59.712"/>
						</g>
					</g>
					<g>
						<g>
							<path style="fill:#371A45;" d="M1302.902,2489.199c-4.222,24.234-20.559,54.765-30.123,77.328
								c-2.345,5.794-3.468,11.716-3.589,18.261c-1.011,24.363-2.937,48.913-6.981,73.031c-0.112,1.029-1.166,6.2-1.178,7.141
								c-0.75,7.185,5.481,13.847,12.865,13.043c36.564-2.248,45.293-51.072,50.665-80.812c0.426-3.17,2.739-5.689,5.648-6.485
								c39.003-9.607,65.603-41.718,84.571-75.53c-8.893,41.077-38.769,79.14-80.315,90.635c-0.011,0.076,5.762-6.675,5.622-6.329
								c-5.484,35.917-16.636,86.344-59.712,93.42c-19.762,4.042-38.054-12.355-33.482-32.628c3.563-18.35,6.442-37.08,8.377-55.703
								c1.919-14.285,0.813-29.032,7.143-42.518c0,0,18.42-37.386,18.42-37.386
								C1286.992,2512.281,1293.677,2500.142,1302.902,2489.199L1302.902,2489.199z"/>
						</g>
					</g>
				</g>
				<g>
					<g>
						
							<ellipse transform="matrix(0.091 -0.9959 0.9959 0.091 30.5063 3425.2771)" style="fill:#C7DDE2;" cx="1891.467" cy="1695.928" rx="135.356" ry="147.126"/>
					</g>
				</g>
				<g>
					<g>
						<g>
							<path style="fill:#808790;" d="M1575.347,2482.569l-8.171,3.193c-7.06,13.459-15.601,24.577-26.551,31.889
								c-8.649,5.829-19.897,6.062-29.202,1.39c-72.34-36.156-123.477-88.773-159.985-152.74c-3.162-5.49-4.286-11.738-3.537-17.776
								c0.571-4.951,2.474-9.82,5.573-13.989c16.591-22.477,38.844-37.504,62.47-50.749l120.479,71.559l3.104,1.82l39.052,46.904
								L1575.347,2482.569z"/>
						</g>
					</g>
					<g>
						<g>
							<path style="fill:#66717C;" d="M1575.347,2482.569l-8.171,3.193c-7.06,13.459-15.601,24.577-26.551,31.889
								c-8.649,5.829-19.897,6.062-29.202,1.39c-72.34-36.156-123.477-88.773-159.985-152.74c-3.162-5.49-4.286-11.738-3.537-17.776
								c0.722-0.998,1.479-1.953,2.275-2.905l4.193-4.069c2.928,13.663,10.481,25.856,18.163,37.511
								c10.418,15.765,21.664,31.527,37.147,42.317c15.482,10.791,36.128,15.947,53.575,8.676
								c17.444-7.231,28.748-29.206,20.533-46.228c17.533-9.508,35.102-18.974,52.636-28.482l3.104,1.82l39.052,46.904
								L1575.347,2482.569z"/>
						</g>
					</g>
					<g>
						<g>
							<path style="fill:#371A45;" d="M1525.06,2532.118c-6.111,0-12.305-1.423-18.045-4.294
								c-70.303-35.181-123.979-86.421-164.097-156.65c-7.605-13.313-6.555-29.985,2.671-42.476
								c18.567-25.132,43.569-41.13,65.579-53.469c3.049-1.709,6.792-1.663,9.802,0.124l123.562,73.381
								c0.962,0.569,1.816,1.299,2.529,2.156l39.053,46.904c1.558,1.87,2.363,4.251,2.263,6.68l-3.23,78.498
								c-0.159,3.889-2.605,7.317-6.23,8.733l-4.822,1.885c-8.039,14.441-17.222,25.005-27.996,32.224
								C1539.855,2530.001,1532.518,2532.118,1525.06,2532.118z M1415.856,2295.128c-18.909,10.913-39.443,24.861-54.49,45.224
								c-4.609,6.243-5.166,14.522-1.414,21.091c38.135,66.758,89.111,115.444,155.842,148.835
								c6.445,3.225,13.875,2.937,19.382-0.759c8.789-5.891,16.414-15.152,23.313-28.311c1.096-2.095,2.915-3.721,5.117-4.583
								l2.205-0.862l2.81-68.323l-35.554-42.703L1415.856,2295.128z"/>
						</g>
					</g>
				</g>
				<g>
					<g>
						<g>
							<path style="fill:#66707F;" d="M1762.644,2243.598l-39.979,34.406l-92.562,79.557l-61.342,76.343
								c-43.232-7.613-98.403-55.32-130.79-104.018c-11.228-16.824-19.724-33.792-24.026-49.235
								c-4.387-15.805-1.001-32.594,8.861-45.679c25.422-33.765,77.01-75.778,114.373-197.135
								c7.514-125.384,28.158-221.991,82.181-295.85l81.268,7.424l65.417,25.674l-20.701,226.612L1762.644,2243.598z"/>
						</g>
					</g>
					<g>
						<g>
							<path style="fill:#4E5B6B;" d="M1722.665,2278.003l-92.562,79.557l-61.342,76.343c-43.232-7.613-98.403-55.32-130.79-104.018
								c-0.365-3.776-0.69-7.549-0.933-11.353c10.254,24.89,38.806,39.239,65.639,37.474c26.837-1.804,51.352-17.45,68.788-37.959
								c17.436-20.509,28.586-45.532,37.867-70.804c9.912-26.988,17.821-57.507,6.367-83.925
								c-9.379-21.54-30.003-35.992-50.884-46.764c-13.73-7.124-28.77-13.265-44.183-11.876
								c12.232-29.967,21.233-61.214,26.819-93.048c6.224,14.673,15.436,28.121,26.865,39.29
								c8.972,8.739,20.641,16.423,33.067,14.958c11.79-1.405,21.339-11.052,26.039-21.969c4.704-10.956,5.419-23.104,6.111-34.978
								c2.842-50.09,5.684-100.18,8.526-150.269l6.506,3.391c44.983,90.231,58.557,192.642,66.47,293.197
								C1724.278,2196.087,1726.658,2237.316,1722.665,2278.003z"/>
						</g>
					</g>
					<g>
						<g>
							<path style="fill:#371A45;" d="M1568.744,2443.729c-0.566,0-1.135-0.049-1.704-0.151
								c-63.765-11.252-145.615-99.846-162.527-160.3c-5.232-18.698-1.423-38.457,10.447-54.211
								c4.968-6.594,10.925-13.523,17.231-20.86c27.695-32.227,65.586-76.309,95.269-172.139
								c8.584-141.438,33.721-231.157,83.982-299.873c2.039-2.783,5.378-4.26,8.811-3.977l81.287,7.427
								c0.921,0.085,1.829,0.3,2.691,0.637l65.4,25.671c4.06,1.594,6.58,5.679,6.184,10.022l-20.628,225.818l17.241,241.103
								c0.222,3.096-1.035,6.116-3.389,8.137l-131.855,113.374l-60.794,75.656
								C1574.51,2442.404,1571.686,2443.729,1568.744,2443.729z M1624.054,1752.265c-45.869,65.115-68.997,151.204-77.085,286.157
								c-0.046,0.781-0.186,1.553-0.415,2.3c-30.938,100.513-72.19,148.511-99.487,180.271c-6.357,7.4-11.851,13.789-16.438,19.88
								c-8.162,10.83-10.793,24.36-7.224,37.122c15.967,57.075,89.485,131.643,141.492,145.056l57.561-71.636
								c0.378-0.466,0.796-0.901,1.253-1.292l128.801-110.747l-16.948-236.98c-0.039-0.532-0.034-1.064,0.015-1.592l20.032-219.28
								l-57.246-22.471L1624.054,1752.265z M1537.179,2037.836h0.049H1537.179z"/>
						</g>
					</g>
				</g>
				<g>
					<g>
						<path style="fill:#66707F;" d="M2417.909,2445.284l-32.703,56.108c-82.235,60.527-174.674,109.838-279.038,146.084
							c-12.168,4.247-24.772,7.232-37.542,9.02c-2.714,0.383-5.424,0.726-8.167,0.987c-66.941,6.532-132.232,9.235-195.191,6.241
							c-32.483-1.51-64.324-9.185-93.85-22.795c-74.667-34.399-142.942-80.111-204.882-136.946
							c-6.434-5.906-9.535-14.66-8.348-23.337c11.212-84.349,46.157-183.55,88.756-287.606c1.764-4.212,3.492-8.467,5.259-12.718
							c-0.359-8.149-0.629-16.841-0.817-25.998c-1.952-84.291,1.959-208.625,6.302-335.953l24.185-70.675l77.428,14.952
							l108.685,17.808l110.469-1.728l92.737-66.383l195.393-68.825l157.298,132.56l16.624,163.046l-24.604,61.891l-41.892,105.382
							c-6.244,47.218-17.528,94.843-32.741,142.778C2365.308,2279.306,2391.744,2365.991,2417.909,2445.284z"/>
					</g>
				</g>
				<g>
					<g>
						<path style="fill:#4E5B6B;" d="M1684.88,1780.333c49.523,29.846,104.206,52.777,161.712,58.796
							c14.753,1.544,29.597,1.97,44.424,2.394c39.274,1.124,79.176,2.182,117.195-7.734c15.667-4.086,30.794-9.986,45.878-15.873
							c23.684-9.242,47.368-18.484,71.052-27.727c23.9-9.326,48.14-18.84,68.602-34.315c7.9-5.975,15.139-12.77,22.28-19.633
							c20.032-19.252,39.436-39.158,58.169-59.676c-75.033,40.733-155.691,69.881-235.994,98.873
							c-33.774,12.193-67.898,24.472-103.539,28.839c-22.892,2.805-46.045,2.296-69.102,1.782
							c-10.689-0.238-21.396-0.478-32.016-1.707c-8.781-1.017-17.469-2.707-26.146-4.395c-40.95-7.967-81.9-15.934-122.849-23.901
							L1684.88,1780.333z"/>
					</g>
				</g>
				<g>
					<g>
						<path style="fill:#4E5B6B;" d="M2417.909,2445.284l-32.703,56.108c-82.235,60.527-174.674,109.838-279.038,146.084
							c-12.168,4.247-24.772,7.232-37.542,9.02c9.814-6.077,16.035-17.682,15.557-29.269c-0.531-12.301-8.646-23.955-20.032-28.699
							c58.947-10.02,114.93-32.444,170.391-54.759c14.886-5.968,30.067-12.146,42.14-22.704
							c20.343-17.84,29.012-46.321,28.211-73.341c-0.798-27.06-9.919-53.146-20.241-78.161
							c-21.594-52.558-48.877-102.8-81.163-149.598c14.268,8.119,33.096,13.345,46.239,3.594c5.454-4.072,9.002-10.13,12.265-16.096
							c53.754-99.374,57.332-224.369,9.314-326.656l5.094,7.636c26.847,30.858,67.359,45.826,99.306,71.319
							c15.055,12.012,28.057,26.241,40.198,41.257l-41.892,105.382c-6.244,47.218-17.528,94.843-32.741,142.778
							C2365.308,2279.306,2391.744,2365.991,2417.909,2445.284z"/>
					</g>
				</g>
				<g>
					<g>
						<path style="fill:#4E5B6B;" d="M1654.197,2072.104c1.985,56.273,23.156,111.695,59.195,154.959
							c-7.603,2.752-15.206,5.505-22.809,8.257c-1.694,0.613-3.43,1.234-5.232,1.237c-2.79,0.004-5.337-1.458-7.817-2.737
							c-12.535-6.467-26.999-9.135-41.017-7.569c9.275-19.156,12.337-40.682,14.13-61.89c2.543-30.077,2.774-60.349,0.693-90.461
							L1654.197,2072.104z"/>
					</g>
				</g>
				<g>
					<g>
						<path style="fill:#371A45;" d="M1657.689,1818.372c2.701,30.282,2.872,60.471,2.703,90.642
							c-0.084,45.172-0.415,135.722-0.194,180.855c0.231,30.083,0.411,60.155,1.805,90.027c0.069,1.481-0.195,2.894-0.737,4.179
							c-38.571,94.983-77.187,192.117-92.584,293.601c-1.356,6.307-1.009,13.892,4.152,18.525c-0.001,0,6.841,6.196,6.841,6.196
							c28.542,25.699,58.964,49.325,90.886,70.662c21.332,14.14,43.299,27.325,65.906,39.317
							c33.264,17.734,67.872,34.142,105.576,38.979c63.427,6.652,128.258,2.98,191.854-1.725c25.716-2.04,49.628-4.102,73.63-13.512
							c92.199-29.491,203.165-93.558,268.708-139.96c0.001,0.003,32.678-56.119,32.678-56.119l-0.894,8.505
							c-11.066-33.474-21.73-66.995-33.296-100.003c-11.439-31.107-22.813-66.38-41.672-92.811c-2.252-2.816-2.79-6.529-1.801-9.73
							c15.168-46.919,25.791-95.05,32.929-143.51c0.001,0,66.419-167.302,66.419-167.302l-0.698,5.02l-16.699-163.037l3.763,7.122
							l-157.235-132.634l10.394,1.9l-195.485,68.561l2.588-1.347l-92.825,66.257c-1.755,1.262-3.776,1.88-5.785,1.907
							l-110.471,1.579c-0.589,0.008-1.222-0.041-1.785-0.131c-31.91-5.279-109.015-17.558-139.884-24.023
							c0,0-46.461-9.037-46.461-9.037c-5.317-1.034-8.79-6.183-7.756-11.5c1.035-5.317,6.158-8.795,11.475-7.761
							c52.307,10.791,132.385,24.048,185.88,32.46c-9.32-0.357,110.872-1.849,108.683-2.007c0,0-5.783,1.907-5.783,1.907
							l92.647-66.507c0.816-0.58,1.683-1.038,2.59-1.348l195.299-69.087c3.673-1.299,7.611-0.432,10.396,1.9l157.36,132.485
							c2.213,1.863,3.488,4.457,3.765,7.124l16.548,163.053c0.178,1.747-0.099,3.492-0.699,5.022l-66.573,167.24l0.657-2.522
							c-6.539,49.233-18.278,97.518-33.209,144.569l-1.799-9.729c22.168,31.065,32.097,64.537,44.981,98.995
							c11.681,33.444,22.326,67.028,33.327,100.402c0.968,2.931,0.537,6.028-0.894,8.507l-32.728,56.092
							c-0.73,1.251-1.724,2.322-2.816,3.134c-84.346,62.148-178.275,111.106-277.029,145.682
							c-24.415,9.763-52.653,12.599-78.746,14.531c-52.046,4.283-104.336,6.25-156.588,4.458
							c-26.305-0.491-53.876-3.864-79.275-11.926c-25.629-7.776-49.106-20.136-72.701-32.357
							c-59.401-31.594-114.624-70.909-164.333-116.21c-11.903-9.341-17.053-24.286-13.716-39.049
							c15.89-104.031,54.863-201.706,94.165-298.313c0.001,0-0.735,4.178-0.735,4.178c-2.144-60.677-0.734-121.081,1.956-181.608
							C1647.655,1938.738,1648.703,1878.359,1657.689,1818.372L1657.689,1818.372z"/>
					</g>
				</g>
				<g>
					<g>
						<path style="fill:#371A45;" d="M2354.392,2236.973c-10.678,24.609-24.165,48.574-41.918,68.671
							c8.552-21.336,14.951-43.263,21.229-65.281c0,0,2.875-9.231,2.875-9.231l0.233-0.749
							C2341.109,2218.02,2359.283,2224.81,2354.392,2236.973L2354.392,2236.973z"/>
					</g>
				</g>
				<g>
					<g>
						<path style="fill:#66707F;" d="M2598.833,1524.793c-3.832,39.796-11.759,76.538-26.766,107.985
							c-29.601-8.042-58.679-11.565-87.303-11.55c0,0-40.278-0.272-84.573,9.678c-62.31,13.996-224.029,75.563-433.823,172.327
							c-17.777,4.486-39.321,8.43-63.941,9.918c-17.38,1.05-33.251,0.692-47.242-0.376c-39.843-5.577-74.011-10.531-100.367-16.644
							c-37.683-8.741-74.663-20.208-110.947-34.373c-14.149-5.547-26.875-14.589-36.052-26.695
							c-0.142-0.171-0.244-0.338-0.386-0.508c-7.792-10.443-10.422-23.921-7.799-36.682l10.889-53.216
							c-5.503-7.476-9.097-15.565-9.58-24.513l14.933-34.093l136.373,59.734c53.519,64.063,108.57,117.826,168.662,137.538
							c48.01-40.803,93.974-91.129,138.871-146.596c12.208-15.038,24.295-30.48,36.329-46.203l282.157-285.462l169.095-39.709
							c19.808,37.188,33.278,76.042,36.535,117.589c-2.126,21.553-10.457,41.594-21.339,61.086l26.761,41.29
							C2596.88,1496.998,2600.177,1510.931,2598.833,1524.793z"/>
					</g>
				</g>
				<g>
					<g>
						<path style="fill:#4E5B6B;" d="M2573.605,1542.188c-3.832,39.796-11.759,76.538-26.766,107.985
							c-59.202-16.085-116.313-14.092-171.876-1.872c-2.474-20.791-13.754-40.063-33.245-46.649
							c-22.012-7.448-45.627,3.081-66.83,12.648c-81.29,36.817-167.399,62.99-255.454,77.678l6.548-4.839
							c2.513-11.117,5.37-22.123,8.571-33.02c12.208-15.038,24.295-30.48,36.329-46.203l282.157-285.462l169.095-39.709
							c19.808,37.188,33.278,76.042,36.535,117.589c-2.126,21.553-10.457,41.593-21.339,61.086l26.761,41.29
							C2571.653,1514.392,2574.95,1528.324,2573.605,1542.188z"/>
					</g>
				</g>
				<g>
					<g>
						<path style="fill:#371A45;" d="M1934.755,1804.285c217.965-43.115,405.941-246.886,640.408-182.865
							c0-0.001-13.712,6.295-13.705,6.287c13.68-28.83,20.726-61.082,24.546-93.725c2.222-14.079,2.044-29.058-5.982-41.305
							c0.001,0-27.341-42.251-27.341-42.251c-2.451-3.774-2.439-8.46-0.398-12.139c10.172-18.167,18.029-37.125,19.901-56.503
							c-1.955-28.357-16.456-78.628-35.212-110.9c0.002-0.001,13.08,5.926,13.08,5.926l-169.093,39.709l5.679-3.184
							c-0.078-0.187-285.386,289.078-281.188,284.348c-53.471,69.477-109.924,137.276-176.917,194.608
							c-3.219,2.759-7.537,3.455-11.29,2.215c-72.46-25.199-125.783-84.722-174.027-141.174c0.001-0.001,4.31,3.233,4.31,3.233
							l-136.371-59.733l15.503-6.059l-14.933,34.092l0.972-5.336c0.287,6.085,2.874,12.136,7.266,18.095
							c2.102,2.75,2.751,6.247,2.092,9.391c0,0-9.343,43.646-9.343,43.646c-3.01,11.526-4.978,24.481,1.762,35.195
							c8.581,13.849,23.204,23.595,38.478,29.097c5.822,2.616,24.572,9.407,30.883,11.916
							c55.538,21.619,113.509,31.484,171.352,45.905c-60.266,2.434-119.422-12.82-176.963-29.193
							c-14.322-4.41-29.185-9.371-43.123-14.917c-27.706-11.586-53.026-39.29-46.782-71.256c-0.001,0,2.129-11.301,2.129-11.301
							l8.545-43.809l2.053,9.335c-6.992-9.853-14.149-23.688-10.883-36.213c0.001,0,14.934-34.093,14.934-34.093
							c2.608-5.955,9.55-8.667,15.504-6.059l136.372,59.733c1.702,0.746,3.187,1.906,4.31,3.235
							c45.599,53.33,96.257,110.385,163.296,133.9c0-0.001-11.287,2.214-11.287,2.214c32.563-27.742,62.723-58.517,91.365-90.71
							c28.637-32.224,55.768-65.916,82.111-100.277c1.038-1.383,281.948-285.287,283.13-286.579
							c1.605-1.623,3.612-2.691,5.681-3.184l169.094-39.709c5.311-1.248,10.63,1.328,13.08,5.927
							c20.302,38.253,35.394,80.596,37.859,124.277c-2.261,23.48-11.528,45.556-22.775,65.668l-0.399-12.137l27.631,42.708
							c10.711,16.681,12.49,37.268,9.317,56.38c-4.029,34.203-11.395,68.848-26.681,101.132c-2.304,5.153-7.954,7.763-13.245,6.412
							c-52.789-13.901-108.005-13.381-161.394-2.403c-108.881,22.681-206.425,81.262-308.999,123.979
							C2047.254,1787.435,1991.492,1805.577,1934.755,1804.285L1934.755,1804.285z"/>
					</g>
				</g>
				<g>
					<g>
						<path style="fill:#371A45;" d="M1617.061,1633.231c26.52,45.804,63.574,84.719,106.017,116.259
							c-23.775-12.615-46.763-27.139-68.126-44.242c-21.346-17.084-41.054-36.818-57.754-59.385
							c-3.873-5.233-2.77-12.615,2.463-16.488C1605.361,1625.09,1613.666,1626.999,1617.061,1633.231L1617.061,1633.231z"/>
					</g>
				</g>
				<g>
					<g>
						<g>
							<g>
								<path style="fill:#66707F;" d="M2286.412,1793.071c1.468,113.518,45.192,226.622,97.115,350.948
									c4.771,11.425,6.556,23.865,5.326,36.185c-8.267,82.797-20.732,168.083-18.446,216.54c0.427,9.051,3.766,17.69,9.564,24.654
									s12.52,15.036,20.178,24.234l334.583,46.322l56.503-57.874c8.763-13.096,14.614-29.067,18.443-47.032
									c2.778-13.032,1.856-26.598-2.775-39.093l-28.384-76.565c32.75-106.284-21.262-243.621-90.764-386.502
									c0.559-36.48-10.513-85.955-27.893-137.157c-14.393-42.399-40.581-80.132-76.493-106.874
									c-27.441-20.434-57.659-36.959-90.603-49.648c-10.02-3.859-20.769-5.48-31.485-4.8
									c-82.277,5.221-157.402,61.471-228.478,146.609L2286.412,1793.071z"/>
							</g>
						</g>
						<g>
							<g>
								<path style="fill:#4E5B6B;" d="M2531.094,2214.456c9.054-15.722,24.049-27.521,40.697-34.734s34.907-10.091,53.041-10.678
									c28.346-0.918,57.546,3.907,81.827,18.565c24.28,14.657,42.949,40.16,44.853,68.458
									c-9.792-8.828-22.293-13.93-34.519-18.864c-7.574-3.057-15.148-6.113-22.721-9.17c-10.839-4.374-21.79-8.781-33.329-10.649
									c-11.129-1.802-22.539-1.196-33.675-2.955c-7.237-1.143-14.31-3.278-21.598-4.035c-7.18-0.746-14.425-0.14-21.619,0.465
									c-17.514,1.475-35.028,2.95-52.542,4.425"/>
							</g>
						</g>
						<g>
							<g>
								<path style="fill:#4E5B6B;" d="M2380.853,2340.238c3.803,10.52,7.607,21.04,11.41,31.56
									c1.416,3.915,2.997,8.06,6.342,10.539c4.374,3.241,10.389,2.691,15.782,1.943c17.3-2.4,34.528-5.314,51.655-8.738
									c8.612-1.722,17.201-3.573,25.869-4.984c14.096-2.296,28.354-3.424,42.591-4.55c12.208-0.965,24.416-1.93,36.624-2.896
									c10.727-0.848,21.458-1.697,32.213-2.032c43.228-1.348,86.505,5.643,127.866,18.284c5.386,1.646,10.979,3.409,16.548,2.569
									c3.656-0.552,7.058-2.202,10.227-4.108c25.801-15.512,37.579-50.806,26.263-78.703c6.01,10.163,12.02,20.326,18.03,30.489
									c5.782,9.777,11.738,20.15,11.844,31.508c0.073,7.8-2.644,15.324-5.324,22.649c-7.226,19.742-14.451,39.485-21.677,59.227
									c-64.976-28.724-138.43-29.152-209.471-29.097c-8.265,0.007-16.641,0.027-24.626,2.159
									c-5.478,1.463-10.685,3.9-16.248,4.998c-4.935,0.974-10.008,0.868-15.038,0.898c-25.742,0.152-51.46,3.997-76.121,11.381
									c-11.496,3.442-23.348,7.702-35.191,5.763c-18.775-3.075-32.004-21.467-35.272-40.209
									c-3.269-18.742,1.268-37.867,5.777-56.35"/>
							</g>
						</g>
						<g>
							<g>
								<path style="fill:#4E5B6B;" d="M2783.538,2200.916c3.658-13.391,0.905-27.802-4.248-40.692
									c-10.489-26.239-31.121-48.272-56.615-60.46c-14.144-6.762-30.772-11.472-39.128-24.737
									c-3.426-5.438-5.046-11.792-6.488-18.056c-6.146-26.701-9.953-53.939-11.363-81.302c-0.913-17.727-0.824-35.512-2.432-53.19
									c-2.919-32.089-11.475-63.658-25.161-92.83c27.232,23.584,49.627,52.731,65.399,85.119
									c9.522,19.553,16.634,40.21,26.206,59.738c6.972,14.223,15.227,27.801,21.844,42.193
									c15.695,34.135,21.733,71.783,27.611,108.891c3.73,23.547,7.468,47.48,4.432,71.127"/>
							</g>
						</g>
						<g>
							<g>
								<path style="fill:#4E5B6B;" d="M2470.253,1589.579c26.924,10.17,51.98,25.263,73.559,44.308
									c13.032,11.502,24.918,24.599,33.067,39.951c17.786,33.509,16.006,73.462,20.792,111.096
									c0.981,7.71,2.356,15.653,6.677,22.113c3.41,5.099,8.403,8.89,13.3,12.583c25.79,19.443,51.579,38.885,77.369,58.328
									c-7.218-36.907-16.682-73.375-28.323-109.134c-6.377-19.588-13.437-39.034-22.991-57.285
									c-33.577-64.142-99.034-110.561-170.671-121.033"/>
							</g>
						</g>
						<g>
							<g>
								<path style="fill:#371A45;" d="M2232.803,1733.018c47.745-72.343,117.6-139.869,205.983-155.623
									c15.557-2.604,31.864-4.484,47.397-0.535c42.905,13.675,82.397,36.206,117.259,64.864
									c34.468,29.722,58.464,69.858,71.53,113.134c13.323,42.289,24.967,85.337,25.058,130.218c0,0-1.236-5.557-1.236-5.557
									c54.441,115.897,128.839,265.539,91.957,395.64c-0.002,0-0.232-8.217-0.232-8.217c8.415,23.073,22.072,58.459,30.048,81.554
									c9.153,31.703-1.923,64.996-18.784,92.642c-0.427,0.638-0.952,1.274-1.469,1.808l-56.576,57.8
									c-2.879,2.954-6.934,4.183-10.732,3.675c-0.026,0.007-334.528-46.762-334.553-46.758c-3.103-0.434-5.782-2.026-7.642-4.257
									l-13.561-16.331l-6.833-8.238c-14.218-16.236-12.679-38.868-12.038-58.951c1.57-49.626,11.462-119.965,16.53-169.855
									c0.948-11.247,4.015-27.902,1.51-38.867c-1.038-6.037-3.307-12.152-5.752-17.791
									c-24.349-59.047-47.375-118.919-64.178-180.957c-14.441-54.986-25.934-112.318-20.076-169.346
									c13.167,120.294,58.65,231.092,105.724,341.359c6.838,14.546,10.179,30.865,8.457,46.904
									c-5.315,57.183-16.06,132.498-18.146,189.35c-0.229,6.898-0.332,13.776-0.12,20.503c-0.19,7.822,1.51,16.242,6.816,22.29
									c4.631,5.708,15.654,18.656,20.343,24.379c0,0-7.671-4.261-7.671-4.261l334.641,45.891l-10.73,3.674l56.427-57.946
									l-1.466,1.807c9.648-14.764,16.799-35.884,17.762-53.827c0.325-9.241-2.313-18.192-5.761-26.713
									c-2.28-5.925-8.869-23.98-11.26-30.259c0,0-14.912-40.382-14.912-40.382c-1.014-2.75-1.031-5.615-0.231-8.219
									c18.495-62.535,6.2-130.193-12.701-191.943c-19.87-63.802-47.822-125.107-76.87-185.42
									c-0.855-1.767-1.249-3.719-1.236-5.558c0.151-13.339-1.161-27.07-3.32-40.764c-4.331-27.597-11.702-54.926-20.232-81.628
									c-11.616-39.123-33.211-75.811-64.165-102.563c-26.096-22.094-57.037-39.882-88.659-53.26
									c-11.531-5.113-23.641-9.335-36.406-8.399c0,0-10.003,0.972-10.003,0.972
									C2364.153,1609.626,2295.865,1674.582,2232.803,1733.018L2232.803,1733.018z"/>
							</g>
						</g>
						<g>
							<g>
								<path style="fill:#371A45;" d="M2757.921,2259.661c-37.844-15.809-75.169-28.92-115.326-35.597
									c-40.161-6.941-80.332-6.852-121.223-5.71C2599.792,2193.668,2695.963,2201.431,2757.921,2259.661L2757.921,2259.661z"/>
							</g>
						</g>
						<g>
							<g>
								<path style="fill:#371A45;" d="M2685.309,1906.786c-6.765-12.495-15.953-30.14-23.099-42.192
									c-8.229-14.035-17.227-27.414-28.065-39.758c14.116,8.53,26.862,19.664,38.59,31.631
									c11.736,12.012,22.523,24.951,32.781,38.242c3.994,5.175,3.036,12.609-2.14,16.603
									C2697.423,1916.024,2688.393,1913.664,2685.309,1906.786L2685.309,1906.786z"/>
							</g>
						</g>
						<g>
							<g>
								<path style="fill:#371A45;" d="M2309.601,1971.143c-16.477-50.607-42.271-98.783-77.906-139.733
									c39.543,37.151,70.891,83.461,93.085,133.899L2309.601,1971.143L2309.601,1971.143z"/>
							</g>
						</g>
					</g>
					<g style="opacity:0.3;">
						<g>
							<path style="fill:#FFFFFF;" d="M2357.259,1936.142c27.591,10.62,69.048,130.783,56.717,156.102
								C2398.251,2124.53,2339.777,1929.413,2357.259,1936.142z"/>
						</g>
					</g>
					<g style="opacity:0.3;">
						<g>
							<path style="fill:#FFFFFF;" d="M2325.523,1867.11c14.136-11.51,49.447,41.661,24.273,54.283
								C2330.139,1931.249,2312.278,1877.895,2325.523,1867.11z"/>
						</g>
					</g>
				</g>
				<g>
					<g>
						<g>
							<g>
								<path style="fill:#FFFFFF;" d="M1182.698,1182.871c21.829,80.323,55.334,154.781,98.387,176.659
									c30.929,15.714,230.489-7.687,230.489-7.687l-215.547-496.81c0,0-12.707,5.283-30.482,13.81
									c-36.927,17.778-95.734,49.839-106.751,78.226C1146.809,977.899,1156.084,1084.774,1182.698,1182.871z"/>
							</g>
						</g>
						<g>
							<g>
								<path style="fill:#C7DDE2;" d="M1182.698,1182.871c21.829,80.323,55.334,154.781,98.387,176.659
									c30.929,15.714,230.489-7.687,230.489-7.687l-215.547-496.81c0,0-12.707,5.283-30.482,13.81
									c-9.835,64.8-16.922,161.424-0.246,272.204C1276.8,1217.516,1224.754,1229.038,1182.698,1182.871z"/>
							</g>
						</g>
						<g>
							<g>
								<path style="fill:#371944;" d="M1333.6,1379.003c-27.058,0-49.123-1.831-58.955-6.831
									c-102.671-52.202-153.149-368.328-129.101-430.227c18.025-46.396,132.095-94.675,145.042-100.029l12.903-5.335
									l228.733,527.173l-18.992,2.224C1489.31,1368.776,1397.533,1379.003,1333.6,1379.003z M1288.615,873.69
									c-44.768,19.932-107.229,54.46-116.587,78.542c-8.953,23.044-3.97,109.143,17.715,200.586
									c24.368,102.751,60.92,175.286,97.778,194.026c15.845,8.049,112.437,2.93,203.377-6.943L1288.615,873.69z"/>
							</g>
						</g>
					</g>
					<g>
						<g>
							<g>
								<circle style="fill:#FFFFFF;" cx="1937.421" cy="970.668" r="720.349"/>
							</g>
						</g>
						<g>
							<g>
								<path style="fill:#C7DDE2;" d="M2652.296,1060.293c-38.369,307.521-273.863,566.578-595.148,620.718
									c-392.301,66.106-763.94-198.346-830.047-590.647c-25.815-153.197-1.256-303.254,61.662-433.115
									c120.227,343.616,615.773,542.662,1160.926,450.799C2519.738,1096.243,2587.502,1080.145,2652.296,1060.293z"/>
							</g>
						</g>
						<g>
							<g>
								<path style="fill:#371A45;" d="M1935.853,1706.332c-151.489,0.002-298.931-46.807-424.851-136.411
									c-160.066-113.899-266.196-283.315-298.84-477.041c-67.388-399.907,203.14-780.083,603.047-847.471
									c193.731-32.649,388.564,12.109,548.63,126.006c160.068,113.901,266.196,283.318,298.84,477.041
									s-12.104,388.565-126.006,548.63s-283.318,266.196-477.041,298.84C2018.309,1702.892,1976.93,1706.332,1935.853,1706.332z
									 M1938.922,265.282c-39.387,0-79.06,3.298-118.684,9.976c-383.45,64.617-642.839,429.143-578.228,812.593
									c31.301,185.752,133.064,348.196,286.543,457.407c120.728,85.908,262.122,130.791,407.363,130.798
									c39.399,0,79.05-3.298,118.687-9.978c185.75-31.301,348.193-133.062,457.407-286.541s152.122-340.3,120.82-526.052
									c-31.301-185.75-133.062-348.193-286.541-457.407C2225.551,310.162,2084.176,265.282,1938.922,265.282z"/>
							</g>
						</g>
						<g>
							<g>
								<path style="fill:#371A45;" d="M1936.508,1705.392c-52.405,0-104.595-5.649-156.125-16.941
									c-232.383-50.943-426.443-211.829-519.114-430.371c-20.811-49.014-36.326-100.71-46.113-153.645
									c-0.715-3.889-1.436-7.817-2.087-11.699c-34.541-204.976,19.79-415.945,149.065-578.814
									c112.93-142.346,273.889-237.383,453.232-267.602c399.421-67.319,779.119,202.886,846.421,602.297
									c67.305,399.414-202.886,779.116-602.297,846.421C2018.519,1701.942,1977.448,1705.392,1936.508,1705.392z
									 M1937.804,264.452c-38.85,0-78.159,3.22-117.717,9.885c-172.405,29.053-327.139,120.41-435.696,257.249
									c-124.28,156.572-176.511,359.382-143.306,556.431c0.632,3.748,1.328,7.534,2.014,11.27
									c9.407,50.884,24.321,100.581,44.324,147.695c89.084,210.083,275.642,364.741,499.041,413.716
									c88.22,19.331,178.491,21.45,268.303,6.323c383.962-64.702,643.701-429.717,579.001-813.682
									C2575.731,508.934,2276.029,264.452,1937.804,264.452z"/>
							</g>
						</g>
						<g>
							<g>
								<path style="fill:#371A45;" d="M1858.878,1689.657c-25.615,0-51.174-1.26-76.58-3.787c-0.439-0.044-0.876-0.115-1.309-0.208
									c-231.477-50.745-424.783-211.006-517.095-428.699c-21.216-46.282-36.375-95.627-44.924-146.367
									c-0.398-2.366-0.784-4.67-1.074-7.041c-0.689-3.745-1.382-7.542-2.014-11.294
									c-34.407-204.18,19.714-414.329,148.486-576.565c0.356-0.449,0.747-0.869,1.167-1.26
									c108.836-101.077,245.747-167.881,395.93-193.191c400.173-67.434,777.048,182.151,840.11,556.367
									c63.064,374.246-211.201,733.577-611.379,801.013C1946.583,1685.975,1902.648,1689.657,1858.878,1689.657z
									 M1785.204,1663.344c66.597,6.563,134.294,4.177,201.218-7.104c387.837-65.354,653.75-412.952,592.766-774.851
									c-60.979-361.87-426.113-603.101-813.948-537.754c-145.508,24.522-278.147,89.131-383.623,186.853
									c-124.402,157.112-176.641,360.437-143.347,558.003c0.632,3.762,1.331,7.563,2.019,11.311
									c0.044,0.239,0.081,0.478,0.11,0.72c0.249,2.127,0.601,4.182,0.957,6.292c8.22,48.789,22.791,96.223,43.311,140.991
									C1374.152,1458.825,1561.193,1614.012,1785.204,1663.344z"/>
							</g>
						</g>
						<g>
							<g>
								<path style="fill:#371A45;" d="M2521.487,891.109c56.128,333.088-187.445,651.883-544.021,711.97
									c-302.259,50.933-588.729-100.373-703.119-350.546c-20.604-44.953-35.634-93.093-44.182-143.824
									c-0.387-2.298-0.765-4.541-1.04-6.858c-51.731-330.602,190.961-645.386,545.072-705.057
									C2130.772,336.708,2465.359,558.02,2521.487,891.109z"/>
							</g>
						</g>
						<g>
							<g>
								<path style="fill:#220F2D;" d="M2521.487,891.109c56.128,333.088-187.445,651.883-544.021,711.97
									c-268.176,45.19-523.917-68.807-658.05-269.88c150.743,113.877,352.312,167.767,560.843,132.627
									c369.302-62.231,626.595-381.031,594.335-724.368C2496.63,788.071,2512.57,838.191,2521.487,891.109z"/>
							</g>
						</g>
						<g style="opacity:0.5;">
							<g>
								<path style="fill:#FFFFFF;" d="M2043.204,613.049c-2.888,51.657-132.623,31.659-346.78,120.985
									c-149.562,62.383-226.132,229.349-292.9,195.005c-66.768-34.344,39.569-234.951,183.943-325.418
									C1809.715,464.358,2046.091,561.392,2043.204,613.049z"/>
							</g>
						</g>
						<g style="opacity:0.5;">
							<g>
								
									<ellipse transform="matrix(0.0303 -0.9995 0.9995 0.0303 1216.2117 3319.4587)" style="fill:#FFFFFF;" cx="2318.88" cy="1032.921" rx="109.377" ry="82.282"/>
							</g>
						</g>
						<g style="opacity:0.5;">
							<g>
								
									<ellipse transform="matrix(0.3546 -0.935 0.935 0.3546 297.0888 2940.949)" style="fill:#FFFFFF;" cx="2278.909" cy="1255.269" rx="46.822" ry="40.731"/>
							</g>
						</g>
						<g>
							<g>
								<g>
									<g>
										<path style="fill:#FFFFFF;" d="M2660.742,748.544l14.052,283.461l8.752,176.566l-96.278,20.968l-9.103,1.968
											c-43.284,1.266-83.938-109.796-90.767-247.852c-0.171-3.106-0.29-6.297-0.396-9.413
											c-5.105-133.693,24.121-241.475,66.412-242.644l9.259,1.446L2660.742,748.544z"/>
									</g>
								</g>
								<g>
									<g>
										<path style="fill:#C7DDE2;" d="M2674.794,1032.006l8.752,176.566l-96.278,20.968l-9.103,1.968
											c-43.284,1.266-83.938-109.796-90.767-247.852c-0.171-3.106-0.29-6.297-0.396-9.413l3.735-17.091
											c0,0,19.873,56.872,48.69,61.413c30.486,4.862,40.662-68.329,40.662-68.329L2674.794,1032.006z"/>
									</g>
								</g>
							</g>
							<g>
								<g>
									<path style="fill:#371A45;" d="M2577.43,1245.756c-59.922,0-97.749-131.045-104.207-261.372
										c-5.71-115.21,12.683-213.511,46.86-250.43c9.883-10.676,20.962-16.257,32.927-16.587c0.864-0.024,1.753,0.032,2.625,0.171
										l107.334,16.987c6.643,1.052,11.638,6.614,11.97,13.33l22.798,460.042c0.344,6.938-4.38,13.108-11.167,14.585
										l-105.366,22.937c-0.867,0.19-1.748,0.298-2.637,0.322C2578.192,1245.751,2577.806,1245.756,2577.43,1245.756z
										 M2552.753,745.851c-3.735,0.479-7.708,2.964-11.819,7.405c-23.186,25.046-45.383,107.617-39.331,229.722
										c7.046,142.205,48.748,232.622,75.112,234.341l92.048-20.039l-21.631-436.492L2552.753,745.851z"/>
								</g>
							</g>
							<g>
								<g>
									<path style="fill:#FFFFFF;" d="M2741.922,943.547c0,0-0.053,0.086-0.041,0.159c1.084,10.746,1.866,21.697,2.421,32.918
										c6.298,126.985-20.871,230.892-60.755,231.949c-38.67,1.074-75.164-95.266-82.958-217.402
										c-0.232-3.478-0.41-7.04-0.589-10.604c-6.298-126.985,20.936-230.903,60.743-232.022
										C2697.073,747.571,2731.331,832.297,2741.922,943.547z"/>
								</g>
							</g>
							<g>
								<g>
									<path style="fill:#C7DDE2;" d="M2741.881,943.706c1.084,10.746,1.866,21.697,2.421,32.918
										c6.298,126.985-20.871,230.892-60.755,231.949c-38.67,1.074-75.164-95.266-82.958-217.402
										c21.64,42.57,65.469,117.064,96.957,91.012C2715.915,1066.903,2731.638,999.627,2741.881,943.706z"/>
								</g>
							</g>
							<g>
								<g>
									<path style="fill:#371A45;" d="M2682.885,1222.807c-55.869,0-91.084-121.091-97.051-241.528
										c-5.269-106.301,11.777-197.08,43.43-231.272c9.314-10.059,19.783-15.32,31.116-15.632
										c56.465-1.45,92.119,120.313,98.125,241.514l0,0c5.266,106.299-11.78,197.078-43.43,231.27
										c-9.314,10.061-19.783,15.322-31.116,15.635C2683.602,1222.802,2683.239,1222.807,2682.885,1222.807z M2661.442,762.772
										c-0.093,0-0.186,0.003-0.278,0.005c-3.406,0.093-7.122,2.292-11.05,6.533c-21.855,23.611-41.206,103.518-35.901,210.561
										c6.538,131.924,45.095,215.237,68.96,214.517c3.406-0.093,7.124-2.293,11.05-6.533
										c21.855-23.611,41.204-103.528,35.903-210.562l0,0C2723.612,845.885,2685.216,762.772,2661.442,762.772z"/>
								</g>
							</g>
						</g>
					</g>
				</g>
				<g>
					<g>
						<path style="fill:#371A45;" d="M2581.566,1432.718c-18.708,31.084-47.276,51.287-76.6,70.011
							c-28.637,17.816-58.35,33.039-88.089,48.15c41.027-27.717,83.351-54.887,117.404-90.714
							c10.926-11.788,20.428-24.621,26.307-38.146C2567.658,1407.163,2589.451,1418.214,2581.566,1432.718L2581.566,1432.718z"/>
					</g>
				</g>
				<g>
					<g>
						<g>
							<path style="fill:#808790;" d="M2816.395,2568.359c-11.192,22.892-29.922,39.461-55.789,50.06l-250.073,20.493
								c-61.422-0.41-118.444-4.556-138.157-40.198c-2.474-12.163-4.085-24.287-4.872-36.375
								c-2.039-31.152,1.526-61.99,10.665-92.594c4.372-14.65,16.091-26.069,30.817-30.279
								c113.583-32.37,234.018-36.655,352.004-6.809c8.435,2.11,16.852,4.416,25.252,6.916c11.816,3.482,21.63,12.062,26.137,23.544
								C2824.987,2495.432,2826.474,2530.473,2816.395,2568.359z"/>
						</g>
					</g>
					<g>
						<g>
							<path style="fill:#66717C;" d="M2816.395,2568.359c-11.192,22.892-29.922,39.461-55.789,50.06l-250.073,20.493
								c-61.422-0.41-118.444-4.556-138.157-40.198c-2.474-12.163-4.085-24.287-4.872-36.375l0.128-0.106l5.978-5.482
								c0.713,9.442,10.176,16.255,19.603,17.431c9.391,1.134,18.734-1.952,27.74-4.794
								c91.656-29.094,189.419-38.798,284.983-28.296c14.666,1.615,31.104,3.235,42.691-5.871
								c13.662-10.689,14.161-30.815,13.419-48.138c-0.468-11.271-0.995-22.744-4.912-33.345
								c-3.92-10.562-11.898-20.273-22.727-23.35c8.844,0.65,17.724,1.343,26.583,2.271c8.435,2.11,16.852,4.416,25.252,6.916
								c11.816,3.482,21.63,12.062,26.137,23.544C2824.987,2495.432,2826.474,2530.473,2816.395,2568.359z"/>
						</g>
					</g>
					<g>
						<g>
							<path style="fill:#371A45;" d="M2510.533,2648.722c-0.022,0-0.042-0.002-0.063-0.002
								c-61.772-0.398-123.979-4.224-146.677-45.261c-0.483-0.874-0.83-1.816-1.028-2.798c-9.124-44.983-7.104-89.976,6.001-133.723
								c5.371-17.937,19.395-31.731,37.515-36.9c127.314-36.282,259.666-36.233,382.747,0.132
								c14.863,4.392,27.004,15.381,32.485,29.392c13.418,34.326,14.885,71.78,4.36,111.318c-0.164,0.615-0.386,1.211-0.664,1.782
								c-12.117,24.802-32.6,43.252-60.886,54.834c-0.93,0.381-1.912,0.615-2.915,0.698l-250.073,20.493
								C2511.068,2648.71,2510.8,2648.722,2510.533,2648.722z M2381.681,2595.214c18.347,30.513,75.801,33.533,128.484,33.887
								l248.101-20.33c22.964-9.702,38.977-24.072,48.899-43.872c9.158-35.076,7.839-68.105-3.923-98.193
								c-3.289-8.41-10.679-15.037-19.773-17.722c-119.514-35.315-248.081-35.344-371.809-0.078
								c-11.475,3.271-20.71,12.339-24.099,23.66C2375.541,2512.687,2373.566,2553.944,2381.681,2595.214z"/>
						</g>
					</g>
					<g>
						<g>
							<path style="fill:#371A45;" d="M2392.626,2592.684c45.233-25.136,97.556-30.098,147.619-36.733
								c32.369-3.126,69.231-5.059,101.718-4.026c32.444,0.628,69.168,4.214,101.316,8.715c17.447,2.336,34.131,5.64,48.604,17.3
								c-8.785,1.793-17.234,1.898-25.619,1.622c-14.34-0.384-35.285-3.28-49.835-4.225c0,0-24.922-1.575-24.922-1.575
								c-48.758-2.29-100.837-1.231-149.486,2.517C2492.024,2579.376,2443.144,2590.396,2392.626,2592.684L2392.626,2592.684z"/>
						</g>
					</g>
				</g>
				<g>
					<g>
						<g>
							<path style="fill:#C7DDE2;" d="M2570.83,2841.404c-13.216,7.848-26.153,14.764-38.716,20.427
								c-11.437,5.156-17.499,18.097-13.692,30.052c6.773,21.271,30.171,31.068,64.449,33.355l11.383-38.357L2570.83,2841.404z"/>
						</g>
					</g>
					<g>
						<g>
							<path style="fill:#371A45;" d="M2582.875,2935.048c-0.217,0-0.437-0.007-0.659-0.022
								c-41.492-2.771-65.417-15.908-73.14-40.166c-5.303-16.655,2.869-34.697,19.009-41.97
								c11.714-5.281,24.06-11.797,37.737-19.917c2.322-1.384,5.117-1.741,7.715-0.993c2.598,0.744,4.773,2.531,6.013,4.934
								l23.425,45.476c1.157,2.249,1.401,4.858,0.681,7.283l-11.384,38.357C2591.031,2932.213,2587.186,2935.048,2582.875,2935.048z
								 M2566.832,2855.067c-10.835,6.14-20.942,11.313-30.688,15.708c-7.056,3.179-10.654,10.974-8.376,18.133
								c4.583,14.392,20.308,22.888,47.976,25.871l7.986-26.909L2566.832,2855.067z"/>
						</g>
					</g>
					<g>
						<g>
							<path style="fill:#C7DDE2;" d="M2608.773,2986.7l-64.938,41.618c-8.461,5.423-19.809,3.874-26.135-3.935
								c-21.223-26.199,21.989-77.632,62.333-111.223L2608.773,2986.7z"/>
						</g>
					</g>
					<g>
						<g>
							<path style="fill:#371A45;" d="M2532.87,3041.366c-8.618,0-17.061-3.733-22.793-10.808
								c-25.649-31.665,16.077-85.3,63.679-124.934c2.422-2.016,5.664-2.749,8.723-1.963c3.052,0.786,5.542,2.993,6.689,5.93
								l28.74,73.54c1.702,4.353,0.093,9.304-3.843,11.826l-64.939,41.618C2544.091,3039.804,2538.444,3041.366,2532.87,3041.366z
								 M2575.958,2929.681c-35.874,32.437-64.053,71.968-50.637,88.528c3.088,3.813,8.896,4.629,13.22,1.853l58.169-37.281
								L2575.958,2929.681z"/>
						</g>
					</g>
					<g>
						<g>
							<path style="fill:#FFFFFF;" d="M2807.532,2774.068c-3.324,16.558-12.612,22.486-25.691,21.606
								c1.089,18.261-0.616,36.504-4.997,54.699c-5.205,19.893-21.103,33.49-43.354,43.316
								c-7.235,22.268-22.994,36.942-43.711,47.223l20.254,72.41c2.436,8.693,0.354,18.116-5.805,24.723
								c-12.889,13.872-27.682,18.391-43.772,16.842c-20.306-1.973-38.146-14.122-49.061-31.35
								c-35.294-55.701-49.657-155.072-72.152-246.085c-30.065,16.873-37.261,65.895-53.799,111.937
								c-3.335,9.348-9.822,17.383-18.565,22.1c-0.334,0.206-0.703,0.369-1.034,0.536c-22.039,11.382-47.751-7.317-44.127-31.885
								c2.005-13.33,2.91-27.548,3.126-42.421c0.234-14.201,1.533-28.423,4.573-42.289c9.791-44.649,30.611-97.036,54.543-151.581
								c3.641-8.374,4.686-17.655,2.988-26.675l-8.002-42.216c1.119-0.173,2.238-0.347,3.354-0.481
								c85.077-13.148,173.654-12.857,264.827-2.598c7.701,16.62,14.776,34.049,21.47,52.192
								c14.284,39.008,26.534,81.297,37.995,125.759C2808.629,2757.74,2809.13,2766.059,2807.532,2774.068z"/>
						</g>
					</g>
					<g>
						<g>
							<path style="fill:#C7DDE2;" d="M2768.599,2624.073c-31.106-13.124-65.016-17.994-98.534-21.963
								c-60.14-7.109-124.622-11.108-177.71,18.002l-5.032-1.405c3.408-12.729,2.505-26.561-2.487-38.758
								c-0.738-1.84-1.597-3.652-2.533-5.471c85.077-13.148,173.654-12.857,264.827-2.598
								C2754.83,2588.5,2761.905,2605.93,2768.599,2624.073z"/>
						</g>
					</g>
					<g>
						<g>
							<path style="fill:#C7DDE2;" d="M2429.586,2884.222c3.451,7.858,14.656,9.613,22.233,5.582s12.187-11.944,15.874-19.694
								c8.914-18.736,14.801-38.912,25.203-56.864c10.403-17.952,26.719-34.106,47.217-37.315
								c-23.251,15.374-33.083,44.058-41.402,70.662c-2.299,7.351-4.597,14.702-6.896,22.052
								c-3.885,12.424-7.965,25.211-16.365,35.156c-8.4,9.945-22.319,16.418-34.652,12.254
								c-12.334-4.165-19.206-21.667-10.366-31.222"/>
						</g>
					</g>
					<g>
						<g>
							<path style="fill:#C7DDE2;" d="M2537.453,2776.543c4.33-5.393,13.046-5.362,18.859-1.614
								c5.812,3.748,9.282,10.18,11.994,16.542c8.404,19.722,11.802,41.143,15.503,62.259
								c7.659,43.702,16.998,87.432,34.125,128.361c5.519,13.188,12.011,26.302,22.089,36.442
								c10.078,10.139,24.345,16.984,38.522,15.141c14.177-1.844,27.213-14.062,27.099-28.358
								c7.507,10.145,5.706,25.987-3.887,34.187c-4.902,4.19-11.192,6.339-17.38,8.152c-17.798,5.216-38.078,8.139-54.02-1.34
								c-14.229-8.46-21.537-24.708-27.995-39.951c-13.134-31.002-26.336-62.217-33.643-95.084
								c-4.395-19.767-6.624-40.003-11.875-59.559c-6.942-25.857-19.246-51.716-14.991-78.148"/>
						</g>
					</g>
					<g>
						<g>
							<path style="fill:#C7DDE2;" d="M2677.387,2890.429c6.894,1.589,13.788,3.177,20.682,4.766
								c3.968,0.915,8.093,1.832,12.073,0.972c4.336-0.936,7.943-3.86,11.233-6.834c4.951-4.477,9.605-9.283,13.92-14.376
								c-2.418,15.617-6.372,31.585-16.131,44.015c-7.987,10.174-19.232,17.18-30.237,23.976
								c-6.083-17.419-9.564-35.744-10.294-54.18"/>
						</g>
					</g>
					<g>
						<g>
							<path style="fill:#C7DDE2;" d="M2738.04,2849.253c4.951,6.21,13.334,9.489,21.185,8.287
								c7.851-1.202,14.868-6.838,17.735-14.245c1.326,0.222,1.533,2.036,1.34,3.366c-1.567,10.767-7.646,20.538-15.586,27.978
								c-7.94,7.439-17.662,12.729-27.677,16.981c-2.059-13.189-1.098-26.84,2.788-39.61"/>
						</g>
					</g>
					<g>
						<g>
							<path style="fill:#371A45;" d="M2666.31,3064.982c-2.227,0-4.487-0.11-6.785-0.332
								c-22.458-2.161-43.547-15.567-56.411-35.865c-27.561-43.481-42.307-110.471-57.917-181.396
								c-3.804-17.283-7.71-35.02-11.831-52.483c-12.566,14.392-20.034,38.806-27.852,64.353
								c-3.345,10.933-6.802,22.239-10.83,33.452c-4.29,11.943-12.515,21.682-23.157,27.422l-1.196,0.632
								c-13.398,6.912-29.392,5.718-41.736-3.113c-12.466-8.918-18.816-23.84-16.572-38.938c1.814-12.183,2.805-25.637,3.035-41.13
								c0.239-16.15,1.804-30.627,4.788-44.265c10.654-48.689,33.843-104.868,55.12-153.403c2.878-6.568,3.689-13.794,2.346-20.899
								l-7.998-42.231c-0.493-2.607,0.088-5.303,1.614-7.471c1.528-2.168,3.867-3.628,6.487-4.043
								c83.523-13.247,172.107-14.272,270.813-3.137c3.408,0.383,6.365,2.52,7.805,5.63
								c21.558,46.631,40.078,102.029,60.046,179.629c2.529,9.836,2.883,19.463,1.052,28.611
								c-3.242,16.179-12.029,26.108-25.166,28.811c0.127,15.801-1.743,31.851-5.581,47.849
								c-5.393,20.603-20.127,36.35-45.027,48.208c-7.18,18.862-20.337,33.662-40.01,44.981l18.145,64.831
								c3.364,12.017,0.273,25.061-8.071,34.043C2698.915,3058.188,2683.763,3064.982,2666.31,3064.982z M2539.244,2767.646
								c1.323,0,2.649,0.268,3.896,0.808c2.81,1.216,4.893,3.677,5.625,6.65c5.554,22.483,10.654,45.656,15.588,68.069
								c15.229,69.19,29.617,134.544,55.327,175.11c9.648,15.222,25.244,25.256,41.721,26.841
								c14.312,1.375,25.652-2.99,35.647-13.75c3.726-4.011,5.088-9.912,3.55-15.4l-20.266-72.415
								c-1.27-4.541,0.869-9.341,5.093-11.433c20.264-10.037,32.935-23.601,38.735-41.465c0.862-2.654,2.813-4.814,5.366-5.942
								c21.448-9.475,33.821-21.521,37.827-36.826c4.128-17.212,5.725-34.646,4.697-51.624c-0.171-2.813,0.876-5.564,2.876-7.549
								c1.997-1.987,4.766-3.013,7.566-2.832c7.703,0.547,12.969-1.606,15.403-13.735c1.228-6.143,0.947-13.013-0.818-19.871
								c-18.943-73.615-36.484-126.775-56.56-171.265c-90.791-9.856-172.761-9.172-250.042,2.109l6.106,32.241
								c2.085,11.008,0.82,22.219-3.655,32.424c-20.889,47.654-43.633,102.708-53.918,149.722c-2.7,12.339-4.119,25.54-4.338,40.359
								c-0.242,16.375-1.304,30.679-3.245,43.728c-1.174,7.898,2.034,15.413,8.584,20.098c6.423,4.6,14.399,5.2,21.338,1.628
								l0.842-0.447c6.404-3.452,11.377-9.414,14.031-16.799c3.867-10.769,7.256-21.848,10.535-32.561
								c10.986-35.915,21.365-69.839,47.686-84.617C2535.929,2768.068,2537.584,2767.646,2539.244,2767.646z"/>
						</g>
					</g>
					<g>
						<g>
							<path style="fill:#371A45;" d="M2683.129,2953.532c-15.073-55.921-23.377-113.731-28.091-171.41
								c12.715,56.388,29.526,111.557,47.076,166.476L2683.129,2953.532L2683.129,2953.532z"/>
						</g>
					</g>
					<g>
						<g>
							<path style="fill:#371A45;" d="M2721.455,2897.966c15.576-50.106,5.665-106.107-3.526-157.376
								c8.14,25.78,15.782,51.808,20.75,78.761c4.861,26.872,7.239,55.038,1.774,83.502L2721.455,2897.966L2721.455,2897.966z"/>
						</g>
					</g>
					<g>
						<g>
							<path style="fill:#371A45;" d="M2772.312,2810.498c0.174-36.309-2.922-73.596-11.388-109.316
								c15.388,34.025,27.341,70.384,31.004,109.171L2772.312,2810.498L2772.312,2810.498z"/>
						</g>
					</g>
				</g>
				<g>
					<g>
						<path style="fill:#808790;" d="M2225.612,2550.952c-97.91,44.518-214.251,60.483-343.731,55.983
							c-70.848-2.453-140.078-24.339-197.639-65.724c-3.217-2.303-6.388-4.681-9.52-7.055
							c-40.703-31.414-61.291-80.768-57.65-130.115c1.186-16.005,4.895-32.016,11.306-47.426
							c14.991-36.018,30.766-69.838,47.588-100.882c7.54-13.967,22.341-22.464,38.194-22.198
							c182.613,2.932,348.5-27.103,478.86-11.098c14.378,1.747,26.632,11.219,31.741,24.726
							c7.383,19.664,16.148,39.729,26.149,60.066c9.965,20.294,21.121,40.932,33.238,61.817
							C2322.378,2434.864,2294.916,2519.423,2225.612,2550.952z"/>
					</g>
				</g>
				<g>
					<g>
						<path style="fill:#66717C;" d="M2225.612,2550.952c-97.91,44.518-214.251,60.483-343.731,55.983
							c-70.848-2.453-140.078-24.339-197.639-65.724c-3.217-2.303-6.388-4.681-9.52-7.055
							c-40.703-31.414-61.291-80.768-57.65-130.115c14.801,41.537,48.659,75.005,87.566,96.327
							c42.057,23.067,89.796,33.535,137.223,40.94c86.234,13.432,175.982,17.297,259.406-8.373
							c32.35-9.967,63.781-24.549,89.326-46.72c50.615-43.874,73.326-117.402,56.269-182.114c1.363,1.031,2.684,2.097,4.048,3.127
							c9.965,20.294,21.121,40.932,33.238,61.817C2322.378,2434.864,2294.916,2519.423,2225.612,2550.952z"/>
					</g>
				</g>
				<g>
					<g>
						<path style="fill:#371A45;" d="M1923.876,2617.499c-13.85,0-27.954-0.251-42.344-0.752
							c-74.961-2.61-145.163-25.972-203.02-67.566c-3.308-2.38-6.563-4.805-9.768-7.275
							c-57.092-44.028-77.41-121.768-49.407-189.053c15.642-37.585,31.787-71.836,47.986-101.799l0,0
							c9.285-17.173,27.112-27.661,47.002-27.324c79.58,1.26,155.039-3.674,227.998-8.467
							c91.406-6.001,177.732-11.675,251.909-2.568c18.137,2.229,33.347,14.121,39.695,31.033c13.799,36.75,33,76.123,58.708,120.374
							c19.517,33.594,23.914,74.165,12.063,111.311c-11.936,37.417-39.275,68.201-75.005,84.455
							C2144.677,2598.542,2044.296,2617.499,1923.876,2617.499z M1684.579,2260.385c-15.884,29.38-31.743,63.028-47.131,100.007
							c-24.6,59.106-6.802,127.361,43.276,165.981c3.032,2.339,6.111,4.631,9.241,6.88c54.695,39.323,121.174,61.416,192.251,63.889
							c136.357,4.746,247.385-13.293,339.353-55.132c30.698-13.965,54.187-40.413,64.441-72.561
							c10.168-31.878,6.401-66.682-10.337-95.496c-26.262-45.205-45.923-85.547-60.11-123.333
							c-3.772-10.049-12.864-17.121-23.723-18.455c-72.339-8.882-157.776-3.269-248.23,2.671
							c-73.352,4.819-149.221,9.79-229.602,8.506C1701.723,2243.195,1690.37,2249.672,1684.579,2260.385L1684.579,2260.385z"/>
					</g>
				</g>
				<g>
					<g>
						<path style="fill:#371A45;" d="M1827.814,2611.014c-0.65,0-1.311-0.063-1.973-0.2
							c-100.647-20.556-188.057-75.862-267.222-169.072c-3.508-4.128-3.003-10.32,1.125-13.825
							c4.131-3.506,10.317-2.998,13.826,1.125c76.214,89.737,160.015,142.908,256.196,162.554c5.308,1.084,8.731,6.264,7.647,11.572
							C1836.466,2607.814,1832.377,2611.014,1827.814,2611.014z"/>
					</g>
				</g>
				<g>
					<g>
						<path style="fill:#371A45;" d="M2231.102,2558.109c-3.389,0-6.682-1.755-8.501-4.9c-2.712-4.69-1.108-10.688,3.582-13.401
							c63.967-36.992,102.573-79.514,147.278-128.752c3.64-4.011,9.846-4.306,13.855-0.667c4.009,3.64,4.309,9.844,0.667,13.855
							c-43.899,48.352-85.364,94.023-151.98,132.547C2234.457,2557.684,2232.767,2558.109,2231.102,2558.109z"/>
					</g>
				</g>
				<g>
					<g>
						<g>
							<path style="fill:#371A45;" d="M1754.115,2238.842c-5.088,0-9.39-3.928-9.773-9.084c-1.206-16.318-0.962-33.569,0.747-52.747
								c0.483-5.396,5.22-9.331,10.642-8.899c5.396,0.483,9.38,5.246,8.899,10.642c-1.616,18.103-1.853,34.311-0.723,49.553
								c0.398,5.403-3.657,10.107-9.058,10.508C1754.603,2238.832,1754.357,2238.842,1754.115,2238.842z"/>
						</g>
					</g>
					<g>
						<g>
							<path style="fill:#371A45;" d="M1992.45,2260.612c-1.797,0-3.618-0.493-5.249-1.529c-4.573-2.905-5.925-8.967-3.023-13.54
								c7.136-11.238,13.213-24.165,18.574-39.524c1.782-5.115,7.373-7.82,12.493-6.028c5.115,1.784,7.813,7.378,6.028,12.492
								c-5.864,16.797-12.58,31.052-20.532,43.577C1998.871,2259.003,1995.695,2260.612,1992.45,2260.612z"/>
						</g>
					</g>
					<g>
						<g>
							<g>
								<path style="fill:#FFFFFF;" d="M2014.489,2225.237c-2.614-0.239-5.227-0.943-7.717-2.154
									c-10.665-5.174-15.012-17.656-9.704-27.875c23.974-46.17,18.629-96.708-14.658-138.66
									c-68.645-89.039-40.165-224.379,21.389-306.637c6.933-9.271,20.409-11.319,30.097-4.586
									c9.688,6.737,11.92,19.707,4.986,28.974c-53.403,71.361-76.251,187.174-22.061,257.465
									c42.882,54.041,50.003,122.235,18.869,182.188C2031.624,2221.789,2023.066,2226.02,2014.489,2225.237z"/>
							</g>
						</g>
					</g>
					<g>
						<g>
							<g>
								<path style="fill:#FFFFFF;" d="M1753.724,2190.052c-11.134-1.017-19.8-10.131-19.661-21.05
									c0.937-73.177,25.413-130.363,47.008-180.818c25.292-59.082,47.131-110.105,33.852-178.777
									c-2.183-11.276,5.542-22.053,17.257-24.066c11.708-2.025,22.975,5.493,25.154,16.768
									c15.611,80.712-10.802,142.423-36.348,202.103c-21.115,49.326-42.949,100.335-43.782,165.596
									c-0.146,11.455-9.923,20.558-21.833,20.335C1754.813,2190.133,1754.266,2190.101,1753.724,2190.052z"/>
							</g>
						</g>
					</g>
					<g>
						<g>
							<g>
								<path style="fill:#371A45;" d="M2016.593,2235.14c-0.994,0-1.992-0.046-2.998-0.136c-3.865-0.352-7.605-1.394-11.113-3.101
									c-7.659-3.716-13.333-10.135-15.962-18.069c-2.556-7.717-1.902-15.938,1.843-23.147
									c22.112-42.583,17.141-89.253-13.635-128.042c-71.621-92.898-42.5-233.462,21.218-318.611
									c10.049-13.428,29.583-16.465,43.55-6.763c6.953,4.836,11.514,12.017,12.842,20.222c1.304,8.057-0.684,16.111-5.601,22.683
									c-51.208,68.425-73.491,178.999-22.146,245.598c45.337,57.136,52.773,129.212,19.805,192.698
									C2039.027,2228.817,2028.329,2235.14,2016.593,2235.14z M2021.168,1751.149c-3.665,0-7.246,1.606-9.514,4.636
									c-59.392,79.368-87.102,209.651-21.475,294.775c35.713,45.007,41.426,99.417,15.593,149.167
									c-1.284,2.473-1.509,5.288-0.632,7.935c0.95,2.864,3.049,5.208,5.911,6.594c1.377,0.669,2.827,1.074,4.321,1.211
									c0.002,0,0.007,0,0.01,0c4.829,0.449,9.5-1.982,11.604-6.033c29.302-56.426,22.629-120.564-17.847-171.575
									c-57.124-74.094-33.704-195.149,21.89-269.436c1.699-2.271,2.39-5.039,1.946-7.795c-0.471-2.905-2.131-5.481-4.675-7.249
									C2026.134,1751.874,2023.632,1751.149,2021.168,1751.149z"/>
							</g>
						</g>
					</g>
					<g>
						<g>
							<g>
								<path style="fill:#371A45;" d="M1755.807,2199.955c-0.205,0-0.413-0.002-0.62-0.005c-0.786-0.015-1.567-0.058-2.341-0.129
									c-0.005,0-0.01,0-0.015,0c-16.228-1.485-28.779-15.076-28.574-30.945c0.959-75.117,25.84-133.249,47.791-184.538
									c24.661-57.607,45.952-107.351,33.247-173.067c-1.536-7.932,0.159-15.979,4.771-22.654
									c4.768-6.897,12.031-11.494,20.452-12.942c16.919-2.93,33.264,8.098,36.448,24.573
									c16.182,83.677-10.835,146.787-36.963,207.822c-20.737,48.445-42.183,98.54-42.991,161.863
									c-0.103,8.015-3.364,15.537-9.184,21.177C1771.925,2196.827,1764.127,2199.955,1755.807,2199.955z M1754.618,2180.284
									c0.388,0.034,0.788,0.051,1.169,0.054c3.208,0,6.177-1.172,8.389-3.318c2.041-1.978,3.184-4.583,3.22-7.337
									c0.857-67.217,23.081-119.128,44.573-169.333c24.961-58.313,50.774-118.611,35.735-196.379
									c-1.172-6.064-7.366-10.085-13.855-8.965c-3.188,0.547-5.901,2.239-7.646,4.763c-1.589,2.3-2.175,5.061-1.65,7.776
									c13.85,71.628-8.538,123.933-34.465,184.5c-21.238,49.624-45.305,105.857-46.216,177.082
									C1743.798,2174.828,1748.517,2179.728,1754.618,2180.284L1754.618,2180.284z"/>
							</g>
						</g>
					</g>
				</g>
				<g style="opacity:0.3;">
					<g>
						<path style="fill:#FFFFFF;" d="M1771.038,2279.74c23.694-24.713,154.588-19.28,171.49,4.044
							C1964.083,2313.528,1756.025,2295.399,1771.038,2279.74z"/>
					</g>
				</g>
				<g style="opacity:0.3;">
					<g>
						<path style="fill:#FFFFFF;" d="M1691.828,2284.958c-3.362-19.585,63.156-35.046,61.941-3.385
							C1752.819,2306.296,1694.978,2303.309,1691.828,2284.958z"/>
					</g>
				</g>
			</g>
			<g>
				<g>
					<path style="fill:#371A45;" d="M1933.708,2755.932c52.866-35.112,132.748-42.063,183.687-0.001
						c-3.577-0.604-8.14-1.702-11.589-2.467c-24.471-4.778-49.236-7.389-74.138-7.132
						C2002.559,2746.382,1962.946,2752.108,1933.708,2755.932L1933.708,2755.932z"/>
				</g>
			</g>
			<g>
				<g>
					<path style="fill:#371A45;" d="M1878.108,3326.735c-15.316-90.063,5.958-180.201,23.848-267.666
						c9.227-43.521,17.871-87.031,23.135-130.987c5.552-44.018,6.03-88.011,8.618-132.789
						c23.135,133.447-23.542,266.423-38.875,397.869c-5.412,43.473-5.966,87.376,0.527,130.668
						C1896.94,3335.127,1880.378,3338.084,1878.108,3326.735L1878.108,3326.735z"/>
				</g>
			</g>
			<g>
				<g>
					<path style="fill:#371A45;" d="M1566.544,3013.23c10.324-29.722,19.03-60.133,26.031-91.105
						c-0.098,7.971-0.117,15.984-0.58,23.954c-1.715,24.169-2.444,48.843-8.389,72.432
						C1580.063,3030.15,1562.891,3024.864,1566.544,3013.23L1566.544,3013.23z"/>
				</g>
			</g>
			<g>
				<g>
					<path style="fill:#5E3F96;" d="M1942.455,3569.401c-61.754,20.031-123.288,34.026-184.517,41.592
						c-120.315,14.87-239.624,4.898-357.795-32.845c-6.254-19.462-9.84-38.574-10.321-57.293
						c-0.963-37.393,17.013-73.343,48.896-93.024c68.007-41.942,181.062-28.603,268.182-10.365c1.75,0.219,3.499,0.437,5.205,0.656
						c102.864,12.596,172.796,14.083,217.231,6.954C1944.335,3456.959,1943.592,3512.896,1942.455,3569.401z"/>
				</g>
			</g>
			<g>
				<g>
					<path style="fill:#4C3482;" d="M1942.455,3569.401c-61.754,20.031-123.288,34.026-184.517,41.592
						c5.511-2.406,10.759-5.467,15.569-9.097c31.533-23.879,38.618-71.638,22.042-107.588c-16.619-35.906-52.394-60.266-90.4-71.288
						l5.511-1.05c0.394-1.312,0.874-2.624,1.444-3.849c102.864,12.596,172.796,14.083,217.231,6.954
						C1944.335,3456.959,1943.592,3512.896,1942.455,3569.401z"/>
				</g>
			</g>
			<g>
				<g>
					<path style="fill:#371A45;" d="M1651.808,3627.157c-86.843,0-171.907-13.218-254.651-39.668
						c-3.018-0.962-5.383-3.325-6.353-6.338c-6.658-20.713-10.288-40.908-10.786-60.029c-1.087-41.641,19.424-80.579,53.53-101.618
						c56.343-34.758,146.289-38.594,274.961-11.719c99.519,12.432,173.293,14.99,219.27,7.607c4.307-0.686,8.574,1.553,10.432,5.515
						c16.318,34.731,15.112,95.276,14.05,148.691c-0.083,4.18-2.805,7.847-6.782,9.136
						C1845.919,3611.01,1747.777,3627.157,1651.808,3627.157z M1407.992,3570.346c166.738,52.158,343.223,49.419,524.795-8.145
						c0.886-45.933,1.326-96.018-9.6-126.316c-48.503,6.392-119.812,3.535-217.512-8.687c-0.264-0.032-0.53-0.076-0.791-0.132
						c-122.007-25.53-209.834-22.461-261.038,9.131c-28.179,17.385-45.125,49.732-44.219,84.412
						C1400.04,3536.4,1402.853,3553.109,1407.992,3570.346z"/>
				</g>
			</g>
			<g>
				<g>
					<path style="fill:#371A45;" d="M1681.05,3402.445c33.364,12.382,63.479,32.252,86.465,57.619
						c-7.194-4.752-14.764-8.794-22.17-12.784c-22.486-12.305-47.14-18.121-71.073-26.503
						C1662.291,3416.021,1668.828,3398.26,1681.05,3402.445L1681.05,3402.445z"/>
				</g>
			</g>
			<g>
				<g>
					<path style="fill:#FFFFFF;" d="M2586.495,3574.431c-1.75,11.196-4.417,22.349-7.96,33.501
						c-8.791,27.422-30.396,49.114-57.992,57.38c-114.279,34.245-234.725,37.262-360.9,11.196
						c-36.956-7.654-67.963-33.807-79.247-69.845c-1.924-6.167-3.499-12.42-4.68-18.762c-5.552-28.641-4.181-59.158,2.285-91.056
						c8.801-43.412,41.474-78.116,84.389-89.084c101.889-26.041,213.438-22.852,330.988-1.585
						c48.053,8.694,85.158,47.116,92.845,95.34C2590.125,3525.997,2590.344,3550.313,2586.495,3574.431z"/>
				</g>
			</g>
			<g>
				<g>
					<path style="fill:#371A45;" d="M2322.941,3703.544c-53.831,0-109.006-5.806-165.283-17.431
						c-41.333-8.555-74.524-37.876-86.624-76.519c-2.068-6.631-3.738-13.32-4.963-19.897c-5.574-28.77-4.795-59.937,2.402-95.212
						c9.514-46.648,45.269-84.377,91.084-96.123c96.362-24.707,206.287-25.273,336.072-1.746
						c50.708,9.197,90.71,48.965,99.541,98.958c4.824,27.319,5.164,54.368,1.013,80.398c-1.804,11.528-4.597,23.276-8.301,34.936
						c-9.878,30.811-33.994,54.653-64.524,63.799C2459.227,3693.925,2392.203,3703.544,2322.941,3703.544z M2319.098,3399.005
						c-55.652,0-106.926,6.118-154.668,18.359c-38.591,9.893-68.713,41.702-76.738,81.04c-6.67,32.703-7.439,61.365-2.349,87.629
						c1.099,5.889,2.578,11.821,4.414,17.71c9.971,31.841,37.512,56.045,71.875,63.159
						c125.459,25.913,245.271,22.222,356.096-10.987c24.331-7.29,43.572-26.348,51.465-50.977
						c3.398-10.693,5.962-21.474,7.612-32.021c0-0.01,0.002-0.019,0.005-0.029c3.806-23.877,3.486-48.74-0.957-73.904
						c-7.41-41.948-41.057-75.33-83.726-83.069C2429.96,3404.645,2372.513,3399.005,2319.098,3399.005z"/>
				</g>
			</g>
			<g>
				<g>
					<path style="fill:#5E3F96;" d="M2586.495,3574.431c-12.202,15.438-29.915,27.115-50.733,32.67
						c-126.043,33.501-258.954,36.431-398.162,10.934c-23.924-4.374-45.573-15.001-61.885-30.134
						c-3.674-18.893-4.33-38.661-2.449-59.086c0.875-9.884,2.362-19.943,4.374-30.134c8.791-44.565,42.51-80.297,86.595-91.406
						c100.765-25.366,210.977-22.261,327.05-1.487c49.333,8.834,87.776,48.283,95.255,97.835c1.181,7.916,2.011,15.789,2.406,23.661
						C2589.775,3543.073,2588.988,3558.774,2586.495,3574.431z"/>
				</g>
			</g>
			<g>
				<g>
					<path style="fill:#4C3482;" d="M2586.495,3574.431c-12.202,15.438-29.915,27.115-50.733,32.67
						c-126.043,33.501-258.954,36.431-398.162,10.934c-23.924-4.374-45.573-15.001-61.885-30.134
						c-3.674-18.893-4.33-38.661-2.449-59.086c1.968-2.318,4.068-4.592,6.167-6.779c7.698,22.961,26.547,42.029,48.152,53.794
						c25.934,14.127,55.587,19.462,84.714,24.054c66.783,10.584,134.879,18.456,201.925,9.491
						c65.033-8.704,129.63-34.638,174.721-82.091C2589.775,3543.073,2588.988,3558.774,2586.495,3574.431z"/>
				</g>
			</g>
			<g>
				<g>
					<path style="fill:#371A45;" d="M2317.828,3645.092c-59.285,0-120.063-5.674-182.063-17.026
						c-25.862-4.731-49.026-16.035-66.985-32.69c-1.584-1.475-2.664-3.413-3.074-5.537c-5.85-30.176-4.739-62.954,3.396-100.208
						c9.734-44.575,43.699-79.521,88.635-91.196c97.278-25.273,208.445-25.881,339.844-1.853c49.37,9.026,88.599,48,97.617,96.985
						c5.164,28.047,5.623,55.793,1.362,82.473c-0.273,1.724-0.986,3.345-2.068,4.717c-13.718,17.349-33.643,30.2-56.104,36.191
						C2467.828,3635.702,2394.069,3645.092,2317.828,3645.092z M2085.111,3582.635c14.617,12.646,33.772,21.616,54.324,25.371
						c138.755,25.42,271.216,21.797,393.708-10.761c17.341-4.624,32.759-14.209,43.696-27.11c3.445-23.56,2.876-48.061-1.689-72.878
						c-7.498-40.708-40.142-73.108-81.235-80.623c-128.42-23.481-236.711-22.983-331.05,1.531
						c-37.461,9.734-65.757,38.784-73.845,75.815C2081.793,3527.079,2080.509,3556.122,2085.111,3582.635z M2586.495,3574.433h0.049
						H2586.495z"/>
				</g>
			</g>
		</g>
		<g>
			<g>
				<path style="fill:#371A45;" d="M2322.946,3720.575c-54.844,0-111.614-5.981-168.733-17.783
					c-47.393-9.814-85.491-43.574-99.431-88.11c-1.67-5.347-3.105-10.874-4.382-16.846c-0.63-1.567-1.096-3.135-1.409-4.736
					c-6.304-32.51-5.166-67.534,3.474-107.102c3.264-14.951,8.921-29.041,16.851-42.017c-7.073-30.303-7.332-58.596-0.793-84.292
					c-5.688-5.793-9.844-12.951-12.08-20.991c-7.883-28.301,1.262-51.455,9.331-71.882c5.874-14.873,11.426-28.933,11.653-46.196
					l-13.008-147.436l-28.662-307.102c-5.234-0.349-10.537-0.32-15.942,0.086c-0.901,20.156,0.605,39.973,2.07,59.255
					c2.205,29.063,4.285,56.465-2.375,81.455c-1.416,5.313-2.104,9.788-2.104,13.691v27.798c0,0.54-0.017,1.079-0.049,1.619
					c-5.728,88.838-19.004,181.765-40.593,284.199c-0.947,4.487-0.381,9.338,1.633,14.031c6.531,15.229,9.336,31.143,8.34,47.307
					c-0.09,1.514-0.315,3.03-0.662,4.502c-3.262,13.823-11.418,25.2-24.319,33.96c6.082,27.061,4.712,56.57-4.126,89.631
					c12.534,35.11,12.776,85.33,11.895,133.992c0.039,14.082-0.242,26.978-0.859,39.073c-1.809,35.483-27.266,65.659-61.902,73.374
					c-83.643,18.633-166.113,28.081-245.122,28.081c-72.275,0-142.954-7.915-210.071-23.521
					c-32.195-7.485-57.825-30.527-68.559-61.626c-3.662-10.611-7.151-21.739-10.667-34.014l-0.93-3.232
					c-0.102-0.362-0.198-0.757-0.281-1.153c-4.919-17.974-7.69-35.938-8.137-53.02c-1.245-47.685,22.363-92.346,61.611-116.558
					c8.935-5.515,18.87-10.383,29.658-14.543c-0.344-6.729,0.396-13.938,2.222-21.587c1.089-27.258,12.283-49.397,32.632-64.839
					c-12.627-42.3,0.2-78.24,16.042-122.615c14.336-40.151,33.967-95.137,43.745-179.331c0.242-2.041,0.705-4.026,1.384-5.933
					c1.05-2.932-0.063-9.153-4.971-15.942c-1.636-2.271-3.34-4.521-5.068-6.807c-10.212-13.508-22.837-30.212-28.682-55.068
					c-3.125-13.306-1.836-27.595,3.633-40.237c3.01-6.972,6.455-13.501,10.1-20.415c3.711-7.029,7.475-14.155,10.62-21.543
					c14.675-96.379,23.115-197.305,25.105-300.159c-1.782,1.406-3.599,2.732-5.449,3.972c-8.965,6.008-19.519,9.187-30.517,9.187
					c-8.823,0-17.7-2.109-25.669-6.099c-0.378-0.19-0.759-0.381-1.14-0.574c-19.216,27.29-48.184,51.279-89.553,74.277
					c0.217,9.973,2.9,22.969,8.113,39.397c0.51,1.606,0.803,2.124,0.816,2.143c5.386,8.716,8.237,18.535,8.481,29.195
					c0.234,10.669-4.08,21.033-11.836,28.452c-7.795,7.454-18.418,11.306-29.121,10.603c-11.899-0.801-26.575-4.807-40.249-16.848
					c-7.178,20.891-20.51,42.278-46.087,47.798c-9.712,2.097-20.161,0.012-28.396-5.72c-4.829-3.359-8.735-7.827-11.438-12.944
					c-13.274,14.881-27.319,25.007-40.479,28.738c-11.702,3.308-23.425,1.839-32.773-4.023c-14.5-9.094-20.854-27.192-15.456-44.013
					c2.034-6.338,3.848-12.51,5.442-18.533c-5.43,5.068-11.145,10.381-17.202,15.989c-8.438,7.815-17.896,13.267-28.105,16.201
					c-5.354,1.541-10.613,2.324-15.625,2.324c-19.668,0-35.073-11.987-41.208-32.068c-5.818-19.041-1.892-40.403,10.503-57.141
					c31.877-43.042,61.836-91.921,89.048-145.286c8.533-16.733,21.387-31.455,37.173-42.573
					c12.031-8.469,24.543-19.184,37.793-30.525c20.603-17.637,45.532-38.979,75.959-57.185c-6.162-17.307-3.413-36.919,7.842-52.158
					c16.194-21.921,36.125-36.941,53.508-47.883c-0.952-18.432,4.609-36.814,15.959-51.875c5.286-7.019,11.404-14.138,17.881-21.672
					c26.565-30.908,62.808-73.083,91.348-164.177c8.096-130.564,29.978-217.017,72.571-285.281
					c-11.055-16.553-15.144-35.176-11.553-53.547l0.146,0.027c0.388-2.881,1.067-6.482,1.958-11.213l6.406-32.842
					c-3.816-7.229-6.223-14.285-7.205-21.101c-24.966-13.872-49.075-29.055-71.782-45.217
					c-72.944-51.904-135.183-115.142-185.105-188.059c-31.23-1.116-42.947-5.254-49.104-8.386
					c-66.748-33.938-104.402-154.079-120.906-222.673c-22.954-95.4-29.98-193.806-16.345-228.901
					c7.656-19.707,27.686-39.851,61.13-61.443c15.557-121.582,61.621-238.955,133.491-339.956
					c116.538-163.772,289.875-272.361,488.088-305.764c198.203-33.394,397.556,12.385,561.333,128.926
					c125.957,89.629,219.639,212.878,271.433,356.924l18.748,2.969c68.425,3.015,105.359,131.211,111.619,257.615
					c5.571,112.346-12.798,205.72-47.939,243.684c-11.411,12.324-24.561,19.309-39.099,20.769l-52.378,11.401
					c-9.951,24.668-21.318,49.019-33.882,72.581c5.815,20.298,9.309,40.332,10.403,59.653c0.049,0.867,0.032,1.733-0.051,2.595
					c-1.619,16.785-6.431,33.865-14.707,52.209c-0.371,0.957-0.767,1.865-1.27,2.803c-0.259,0.554-0.518,1.106-0.781,1.658
					l18.56,28.687c15.115,23.538,14.834,49.897,11.885,68.015c-3.774,31.834-10.007,59.426-18.975,83.887
					c2.441,1.902,4.746,3.748,6.98,5.581c33.452,29.001,58.718,67.095,73.403,110.457c13.472,40.979,27.839,88.621,29.253,139.004
					l3.521,7.48c53.701,113.999,120.352,255.508,89.263,384.233c2.368,6.387,4.978,13.354,7.666,20.525
					c6.978,18.621,14.192,37.876,19.302,52.671c0.098,0.276,0.186,0.554,0.266,0.835c7.908,27.395,3.86,58.262-11.67,89.941
					c5.188,5.794,9.29,12.424,12.114,19.646l0,0c14.763,37.769,16.431,78.784,4.956,121.902c-0.435,1.653-1.057,3.323-1.841,4.915
					c-9.497,19.446-23.562,35.583-41.899,48.106c11.331,32.483,22.495,70.229,33.982,114.868
					c3.174,12.334,3.599,24.514,1.257,36.199c-3.457,17.246-12.373,30.256-25.176,37.304c-0.657,13.481-2.573,26.904-5.71,39.98
					c-6.26,23.933-22.483,42.866-48.33,56.626c-7.275,15.779-18.496,29.199-33.486,40.066l14.768,52.769
					c4.949,17.693,0.349,36.936-12,50.227c-17.556,18.892-40.276,27.725-65.994,25.281c-27.659-2.661-53.513-18.997-69.175-43.699
					c-0.957-1.514-1.907-3.062-2.849-4.651l-27.559,17.663c-6.062,3.879-12.847,6.309-19.888,7.146
					c8.389,36.785,15.75,73.926,22.905,110.027l0.662,3.33c6.223,31.401,15.774,61.494,28.386,89.448
					c9.995,22.156,8.762,47.644-2.876,68.523c11.426,36.032,12.039,72.119,1.799,107.395c11.343,16.14,19.102,34.482,22.639,53.694
					c5.518,29.954,5.999,59.641,1.431,88.245c-0.251,1.572-0.657,3.149-1.216,4.712c-1.941,10.947-4.646,21.914-8.047,32.622
					c-11.604,36.201-39.963,64.209-75.872,74.966C2462.802,3710.634,2393.729,3720.575,2322.946,3720.575z M2082.23,3585.575
					c0.513,1.138,0.896,2.334,1.147,3.56c1.14,5.566,2.419,10.601,3.914,15.386c10.247,32.729,38.533,57.607,73.818,64.917
					c54.851,11.328,109.302,17.075,161.836,17.075c67.471,0,133.252-9.458,195.522-28.115c25.149-7.534,45.037-27.231,53.198-52.695
					c3.098-9.751,5.537-19.79,7.234-29.79c0.203-1.211,0.537-2.393,0.996-3.525c3.789-24.468,3.303-49.944-1.445-75.74
					c-3.22-17.48-11.138-34.041-22.896-47.888c-3.225-3.796-4.626-8.816-3.833-13.733c0.632-3.916,2.603-7.454,5.525-10.042
					c8.228-30.105,6.716-61.059-4.5-92.048c-1.929-5.33-1.082-11.269,2.263-15.844c8.914-12.195,10.571-28.372,4.326-42.217
					c-13.679-30.313-24.023-62.891-30.75-96.826l-0.608-3.066c-8.447-42.615-17.124-86.399-27.358-129.019l-1.448-6.155
					c-1.655-6.917,1.162-14.133,7.065-18.098c5.906-3.97,13.655-3.843,19.429,0.3c4.146,2.969,9.895,3.027,14.282,0.225
					l43.054-27.598c4.094-2.625,9.116-3.374,13.794-2.058c4.683,1.316,8.579,4.568,10.708,8.941
					c3.369,6.921,6.638,12.859,9.99,18.149c10.073,15.889,26.394,26.367,43.657,28.027c14.788,1.421,27.29-3.264,37.791-14.563
					c4.336-4.666,5.925-11.509,4.148-17.861l-18.145-64.829c-2.097-7.5,1.16-15.469,7.91-19.353
					c16.177-9.304,26.833-21.169,32.581-36.274c1.56-4.097,4.639-7.434,8.596-9.319c20.381-9.705,31.78-21.509,35.872-37.146
					c2.947-12.295,4.624-25.315,4.902-38.359c0.002-0.117,0.005-0.232,0.01-0.347c0.002-0.091,0.002-0.178,0.005-0.269l0.061-2.095
					c0.027-0.781,0.059-1.563,0.054-2.339c-0.063-8.13,5.632-15.168,13.596-16.809c2.51-0.515,9.175-1.887,11.897-15.476
					c1.326-6.616,1.04-13.687-0.845-21.018c-12.791-49.702-25.117-90.525-37.683-124.805c-2.913-7.937,0.442-16.809,7.878-20.837
					c17.996-9.746,31.389-23.264,39.817-40.188c9.373-35.742,8.04-69.38-3.948-100.046c-2.227-5.693-6.204-10.679-11.501-14.417
					c-7.209-5.083-9.341-14.832-4.915-22.463c11.16-19.233,22.8-47.864,15.085-75.261c-4.958-14.324-12.021-33.171-18.853-51.401
					c-3.423-9.133-6.724-17.942-9.558-25.647c-1.204-3.276-1.375-6.841-0.486-10.215c31.104-118.152-33.718-255.764-85.803-366.335
					l-5.068-10.764c-1.028-2.188-1.58-4.57-1.616-6.987c-0.713-46.973-14.612-93.005-27.585-132.466
					c-12.698-37.49-34.521-70.464-63.066-95.215c-4.341-3.56-9.434-7.495-15.684-12.09c-6.357-4.675-8.672-13.103-5.593-20.366
					c10.405-24.548,17.427-53.142,21.462-87.412c0.032-0.266,0.071-0.532,0.115-0.798c2.869-17.278,0.437-33.042-6.848-44.387
					l-23.813-36.809c-3.34-5.166-3.635-11.731-0.771-17.175c1.702-3.235,3.328-6.524,4.871-9.861c0.093-0.2,0.19-0.401,0.291-0.596
					l0.137-0.344c0.071-0.173,0.146-0.344,0.222-0.515c6.584-14.524,10.469-27.791,11.858-40.505
					c-1.155-18.337-4.824-37.527-10.911-57.063c-1.372-4.402-0.898-9.172,1.309-13.22c14.69-26.931,27.744-55,38.806-83.433
					c2.07-5.322,6.67-9.253,12.249-10.466l62.278-13.557c0.757-0.166,1.523-0.278,2.295-0.339
					c6.313-0.493,12.209-3.784,18.022-10.063c23.513-25.4,44.663-102.925,38.916-218.857
					c-6.113-123.418-41.816-224.48-79.59-225.291c-0.771-0.017-1.538-0.085-2.3-0.205l-29.814-4.719
					c-6.218-0.984-11.389-5.322-13.44-11.277c-48.706-141.45-139.436-262.461-262.383-349.949
					c-156.362-111.267-346.692-154.976-535.928-123.091c-189.241,31.89-354.734,135.564-465.994,291.921
					c-70.151,98.586-114.553,213.484-128.406,332.268c-0.603,5.168-3.538,9.78-7.964,12.515
					c-40.234,24.863-51.265,41.502-54.258,49.204c-9.685,24.932-4.878,114.702,17.712,208.599
					c25.371,105.444,63.962,180.315,103.235,200.283c2.021,1.03,11.096,4.419,43.12,4.915c5.598,0.088,10.793,2.917,13.901,7.576
					c48.43,72.563,109.495,135.332,181.492,186.563c24.175,17.205,50.027,33.259,76.836,47.715
					c6.157,3.32,9.656,10.066,8.826,17.012c-0.427,3.589,1.057,8.682,4.182,14.336c0.212,0.388,0.41,0.781,0.593,1.184
					c0.295,0.396,0.571,0.801,0.83,1.221c0.071,0.115,0.322,0.535,0.391,0.652c2.322,3.672,3.062,7.952,2.231,12.217l-9.692,50.073
					c-0.012,0.073-0.027,0.149-0.042,0.222c-2.905,14.858,4.717,27.07,11.621,34.697c5.254,5.803,5.874,14.443,1.502,20.94
					c-43.65,64.836-65.689,148.811-73.696,280.786c-0.083,1.362-0.327,2.708-0.733,4.009
					c-30.723,99.194-69.958,144.849-98.606,178.184c-6.16,7.165-11.929,13.879-16.557,20.024
					c-8.069,10.708-10.989,23.718-8.22,36.638c1.538,7.182-1.702,14.543-8.04,18.259c-16.477,9.658-37.393,23.457-53.015,44.604
					c-5.222,7.068-5.842,16.453-1.582,23.906c0.759,1.335,1.541,2.629,2.317,3.923l1.304,2.175c2.378,4.007,3.01,8.811,1.75,13.296
					c-1.26,4.485-4.302,8.259-8.418,10.442c-33.86,17.952-60.706,40.935-84.39,61.211c-13.906,11.904-27.017,23.127-40.361,32.525
					c-11.272,7.939-20.415,18.381-26.443,30.198c-28.064,55.037-59.023,105.532-92.017,150.083
					c-5.996,8.096-7.979,18.159-5.303,26.919c2.432,7.956,6.165,7.956,8.635,7.956c1.821,0,3.911-0.334,6.211-0.996
					c5.049-1.45,9.883-4.297,14.375-8.457c21.521-19.922,38.679-36.067,53.999-50.811c5.081-4.888,12.649-6.142,19.033-3.152
					c6.387,2.993,10.269,9.61,9.763,16.643c-1.689,23.496-6.745,48.115-15.459,75.263c-0.625,1.951-0.154,3.948,1.121,4.749
					c1.204,0.75,3.052,0.769,5.391,0.107c10.576-2.998,29.48-19.871,45.982-49.829c3.418-6.208,10.313-9.661,17.334-8.64
					c0.281,0.039,0.566,0.056,0.85,0.081c9.204,0.737,16.145,8.674,15.644,17.896l-0.125,2.363
					c-0.542,9.485-1.055,18.45-0.039,25.552c0.086,0.605,0.476,1.223,1.013,1.596c0.391,0.274,0.877,0.425,1.343,0.425
					c14.441-3.069,23.794-22.583,28.21-58.037c0.945-7.59,6.836-13.621,14.402-14.741c7.588-1.135,14.954,2.937,18.059,9.929
					c8.75,19.685,20.708,30.171,35.544,31.17c1.199,0.107,2.39-0.369,3.294-1.231c0.857-0.82,1.352-1.97,1.328-3.078
					c-0.105-4.566-1.216-8.511-3.396-12.039c-1.697-2.737-3.074-5.847-4.316-9.763c-8.447-26.633-11.279-46.541-8.904-62.644
					c0.788-5.352,4.075-10.012,8.855-12.552c46.479-24.712,76.953-50.732,93.159-79.551c4.585-8.154,14.895-11.076,23.074-6.563
					c5.09,2.81,9.707,5.247,14.109,7.449c7.139,3.579,15.83,3.201,21.98-0.92c4.148-2.781,7.947-6.177,11.611-10.386
					c2.998-3.442,7.256-5.537,11.811-5.813c4.575-0.276,9.036,1.289,12.429,4.346l5.283,4.761c3.049,2.751,6.157,5.437,9.263,8.125
					l2.351,2.036c3.801,3.296,5.95,8.106,5.871,13.135c-1.711,108.12-10.444,214.265-25.959,315.488
					c-0.203,1.326-0.562,2.625-1.069,3.867c-3.918,9.578-8.591,18.425-12.715,26.233c-3.391,6.431-6.536,12.393-9.026,18.162
					c-2.588,5.979-3.203,12.698-1.738,18.928c4.197,17.849,13.567,30.247,22.627,42.236c1.946,2.573,3.804,5.032,5.581,7.493
					c10.835,14.993,14.436,32.314,9.712,46.523c-10.249,87.603-30.564,144.495-45.41,186.074
					c-16.777,46.997-26.904,75.364-11.836,111.606c3.352,8.064,0.063,17.356-7.615,21.514c-17.917,9.704-26.851,24.621-27.31,45.603
					c-0.029,1.323-0.212,2.637-0.544,3.918c-2.136,8.213-2.248,15.01-0.32,19.654c1.841,4.433,1.724,9.436-0.32,13.779
					c-2.044,4.343-5.825,7.622-10.415,9.031c-13.77,4.224-26.013,9.612-36.389,16.016c-28.962,17.864-46.375,51.077-45.447,86.677
					c0.378,14.448,2.778,29.8,7.134,45.63c0.073,0.268,0.144,0.552,0.207,0.844l0.684,2.363
					c3.367,11.772,6.677,22.329,10.139,32.358c6.887,19.956,23.367,34.746,44.077,39.565c64.59,15.02,132.673,22.632,202.356,22.632
					c76.523,0,156.501-9.17,237.715-27.261c19.746-4.404,34.258-21.616,35.291-41.87c0.588-11.479,0.854-23.779,0.818-37.598
					c0.833-46.008,0.698-97.158-11.467-126.306c-1.494-3.579-1.724-7.564-0.644-11.292c9.902-34.251,10.649-63.289,2.28-88.774
					c-2.705-8.242,1.218-17.205,9.111-20.806c13.432-6.13,16.811-12.744,18.032-17.373c0.554-10.588-1.357-21.062-5.684-31.147
					c-4.795-11.174-6.06-23.101-3.66-34.487c21.253-100.82,34.312-192.168,39.927-279.258l-0.017-27.332
					c0-6.912,1.067-14.26,3.257-22.468c5.171-19.4,3.303-44.002,1.328-70.049c-1.907-25.073-3.875-50.95-1.023-78.748
					c0.776-7.571,6.482-13.708,13.979-15.032c18.645-3.296,36.191-3.335,53.645-0.117c7.498,1.379,13.164,7.576,13.875,15.166
					l29.937,320.784l13.088,148.342c0.044,0.52,0.066,1.042,0.066,1.567c-0.1,24.016-7.505,42.769-14.041,59.314
					c-7.271,18.408-13.013,32.947-8.196,50.237c1.062,3.821,3.584,6.985,7.104,8.914c7.295,3.999,10.635,12.683,7.896,20.537
					c-7.725,22.17-8.44,47.622-2.126,75.677c4.719,5.876,5.054,14.302,0.542,20.583c-8.232,11.465-13.928,24.246-16.931,37.988
					C2078.202,3527.787,2077.052,3557.997,2082.23,3585.575z M2580.27,3571.527c-0.002,0.005-0.002,0.01-0.005,0.015
					C2580.267,3571.537,2580.267,3571.532,2580.27,3571.527z M1611.561,1636.857v0.002V1636.857z"/>
			</g>
		</g>
	</g>
</g>
</svg>
